<?xml version="1.0" encoding="UTF-8" standalone="no"?>
<svg
   xmlns:dc="http://purl.org/dc/elements/1.1/"
   xmlns:cc="http://creativecommons.org/ns#"
   xmlns:rdf="http://www.w3.org/1999/02/22-rdf-syntax-ns#"
   xmlns:svg="http://www.w3.org/2000/svg"
   xmlns="http://www.w3.org/2000/svg"
   viewBox="0 0 666.66669 666.66669"
   height="666.66669"
   width="666.66669"
   xml:space="preserve"
   id="svg2"
   version="1.1"><metadata
     id="metadata8"><rdf:RDF><cc:Work
         rdf:about=""><dc:format>image/svg+xml</dc:format><dc:type
           rdf:resource="http://purl.org/dc/dcmitype/StillImage" /><dc:title></dc:title></cc:Work></rdf:RDF></metadata><defs
     id="defs6"><clipPath
       id="clipPath18"
       clipPathUnits="userSpaceOnUse"><path
         id="path16"
         d="M 0,0.005 H 500 V 500.001 H 0 Z" /></clipPath><linearGradient
       id="linearGradient28"
       spreadMethod="pad"
       gradientTransform="matrix(0,-440.202,-440.202,0,249.9994,488.2778)"
       gradientUnits="userSpaceOnUse"
       y2="0"
       x2="1"
       y1="0"
       x1="0"><stop
         id="stop24"
         offset="0"
         style="stop-opacity:1;stop-color:#262261" /><stop
         id="stop26"
         offset="1"
         style="stop-opacity:1;stop-color:#1b75ba" /></linearGradient><clipPath
       id="clipPath38"
       clipPathUnits="userSpaceOnUse"><path
         id="path36"
         d="M 0,500 H 500 V 0 H 0 Z" /></clipPath><clipPath
       id="clipPath92"
       clipPathUnits="userSpaceOnUse"><path
         id="path90"
         d="m 200.829,391.46 h 98.429 v -10.536 h -98.429 z" /></clipPath><clipPath
       id="clipPath148"
       clipPathUnits="userSpaceOnUse"><path
         id="path146"
         d="m 200.829,364.135 h 98.429 v -10.536 h -98.429 z" /></clipPath><clipPath
       id="clipPath204"
       clipPathUnits="userSpaceOnUse"><path
         id="path202"
         d="m 200.829,336.81 h 98.429 v -10.536 h -98.429 z" /></clipPath><clipPath
       id="clipPath260"
       clipPathUnits="userSpaceOnUse"><path
         id="path258"
         d="m 200.829,309.485 h 98.429 v -10.536 h -98.429 z" /></clipPath><clipPath
       id="clipPath316"
       clipPathUnits="userSpaceOnUse"><path
         id="path314"
         d="m 200.829,282.16 h 98.429 v -10.536 h -98.429 z" /></clipPath><clipPath
       id="clipPath380"
       clipPathUnits="userSpaceOnUse"><path
         id="path378"
         d="M 0,500 H 500 V 0 H 0 Z" /></clipPath><clipPath
       id="clipPath396"
       clipPathUnits="userSpaceOnUse"><path
         id="path394"
         d="m 16.055,0 h 143.99 V 162.473 H 16.055 Z" /></clipPath><linearGradient
       id="linearGradient406"
       spreadMethod="pad"
       gradientTransform="matrix(0,-176.82954,-176.82954,0,88.050171,164.0177)"
       gradientUnits="userSpaceOnUse"
       y2="0"
       x2="1"
       y1="0"
       x1="0"><stop
         id="stop402"
         offset="0"
         style="stop-opacity:1;stop-color:#262261" /><stop
         id="stop404"
         offset="1"
         style="stop-opacity:1;stop-color:#1b75ba" /></linearGradient><clipPath
       id="clipPath416"
       clipPathUnits="userSpaceOnUse"><path
         id="path414"
         d="M 0,500 H 500 V 0 H 0 Z" /></clipPath><clipPath
       id="clipPath498"
       clipPathUnits="userSpaceOnUse"><path
         id="path496"
         d="M 339.955,0 H 483.944 V 162.473 H 339.955 Z" /></clipPath><linearGradient
       id="linearGradient508"
       spreadMethod="pad"
       gradientTransform="matrix(0,-176.82954,-176.82954,0,411.94983,164.0177)"
       gradientUnits="userSpaceOnUse"
       y2="0"
       x2="1"
       y1="0"
       x1="0"><stop
         id="stop504"
         offset="0"
         style="stop-opacity:1;stop-color:#262261" /><stop
         id="stop506"
         offset="1"
         style="stop-opacity:1;stop-color:#1b75ba" /></linearGradient><clipPath
       id="clipPath518"
       clipPathUnits="userSpaceOnUse"><path
         id="path516"
         d="M 0,500 H 500 V 0 H 0 Z" /></clipPath><clipPath
       id="clipPath600"
       clipPathUnits="userSpaceOnUse"><path
         id="path598"
         d="M 170.489,0 H 329.511 V 103.387 H 170.489 Z" /></clipPath><linearGradient
       id="linearGradient610"
       spreadMethod="pad"
       gradientTransform="matrix(0,-112.52284,-112.52284,0,250,104.37022)"
       gradientUnits="userSpaceOnUse"
       y2="0"
       x2="1"
       y1="0"
       x1="0"><stop
         id="stop606"
         offset="0"
         style="stop-opacity:1;stop-color:#262261" /><stop
         id="stop608"
         offset="1"
         style="stop-opacity:1;stop-color:#1b75ba" /></linearGradient><clipPath
       id="clipPath620"
       clipPathUnits="userSpaceOnUse"><path
         id="path618"
         d="M 0,500 H 500 V 0 H 0 Z" /></clipPath><clipPath
       id="clipPath754"
       clipPathUnits="userSpaceOnUse"><path
         id="path752"
         d="M 0,500 H 500 V 0 H 0 Z" /></clipPath></defs><g
     transform="matrix(1.3333333,0,0,-1.3333333,0,666.66667)"
     id="g10"><g
       id="g32"><g
         clip-path="url(#clipPath38)"
         id="g34"><g
           transform="translate(378.0907,320.8859)"
           id="g40"><path
             id="path42"
             style="fill:#81d4fa;fill-opacity:1;fill-rule:nonzero;stroke:none"
             d="m 0,0 c -0.301,9.403 -8.013,16.934 -17.488,16.934 -0.216,0 -0.43,-0.009 -0.644,-0.016 -1.841,9.243 -9.996,16.21 -19.78,16.21 -9.81,0 -17.98,-7.004 -19.793,-16.283 -0.833,0.122 -1.686,0.187 -2.553,0.187 -9.453,0 -17.151,-7.495 -17.487,-16.866 h -6.531 c -8.352,0 -15.122,-6.77 -15.122,-15.122 0,-8.351 6.77,-15.121 15.122,-15.121 H -2.121 C 6.23,-30.077 13,-23.307 13,-14.956 13,-7.326 7.344,-1.034 0,0" /></g><g
           transform="translate(371.7285,322.9028)"
           id="g44"><path
             id="path46"
             style="fill:#caeaff;fill-opacity:1;fill-rule:nonzero;stroke:none"
             d="m 0,0 c -0.283,8.83 -7.525,15.903 -16.424,15.903 -0.202,0 -0.403,-0.008 -0.604,-0.015 -1.729,8.68 -9.387,15.223 -18.576,15.223 -9.212,0 -16.886,-6.577 -18.588,-15.291 -0.782,0.114 -1.583,0.176 -2.397,0.176 -8.878,0 -16.108,-7.039 -16.422,-15.84 h -6.134 c -7.843,0 -14.201,-6.358 -14.201,-14.201 0,-7.843 6.358,-14.201 14.201,-14.201 h 77.153 c 7.843,0 14.201,6.358 14.201,14.201 C 12.209,-6.88 6.897,-0.971 0,0" /></g><g
           transform="translate(194.9167,345.6114)"
           id="g48"><path
             id="path50"
             style="fill:#81d4fa;fill-opacity:1;fill-rule:nonzero;stroke:none"
             d="m 0,0 c -0.301,9.403 -8.013,16.934 -17.488,16.934 -0.216,0 -0.43,-0.009 -0.644,-0.016 -1.841,9.243 -9.996,16.21 -19.78,16.21 -9.81,0 -17.98,-7.004 -19.793,-16.283 -0.833,0.122 -1.686,0.188 -2.553,0.188 -9.453,0 -17.151,-7.496 -17.487,-16.867 h -6.531 c -8.352,0 -15.122,-6.77 -15.122,-15.122 0,-8.351 6.77,-15.121 15.122,-15.121 H -2.121 C 6.23,-30.077 13,-23.307 13,-14.956 13,-7.326 7.344,-1.034 0,0" /></g><g
           transform="translate(188.5545,347.6284)"
           id="g52"><path
             id="path54"
             style="fill:#caeaff;fill-opacity:1;fill-rule:nonzero;stroke:none"
             d="m 0,0 c -0.283,8.83 -7.525,15.903 -16.424,15.903 -0.202,0 -0.403,-0.008 -0.604,-0.015 -1.729,8.68 -9.387,15.223 -18.576,15.223 -9.212,0 -16.886,-6.577 -18.588,-15.292 -0.783,0.115 -1.583,0.176 -2.397,0.176 -8.878,0 -16.108,-7.039 -16.422,-15.839 h -6.134 c -7.843,0 -14.201,-6.358 -14.201,-14.201 0,-7.843 6.358,-14.201 14.201,-14.201 h 77.153 c 7.843,0 14.201,6.358 14.201,14.201 C 12.209,-6.88 6.897,-0.971 0,0" /></g><path
           id="path56"
           style="fill:#1b75ba;fill-opacity:1;fill-rule:nonzero;stroke:none"
           d="M 296.05,276.892 H 204.037 V 398.495 H 296.05 Z" /><g
           transform="translate(299.2578,404.9915)"
           id="g58"><path
             id="path60"
             style="fill:#1b75ba;fill-opacity:1;fill-rule:nonzero;stroke:none"
             d="m 0,0 v -21.356 c 0,-1.498 -1.213,-2.711 -2.711,-2.711 h -93.006 c -1.439,0 -2.611,1.113 -2.703,2.527 -0.008,0.059 -0.008,0.125 -0.008,0.184 V 0 c 0,1.498 1.213,2.711 2.711,2.711 H -2.711 C -1.213,2.711 0,1.498 0,0" /></g><g
           transform="translate(296.3122,407.7029)"
           id="g62"><path
             id="path64"
             style="fill:#40c5f4;fill-opacity:1;fill-rule:nonzero;stroke:none"
             d="m 0,0 c 0,0 -0.718,-1.05 -0.718,-2.939 l -87.811,-2.752 v -16.736 l -6.945,-1.825 c -0.009,0.059 -0.009,0.126 -0.009,0.185 v 21.356 c 0,1.497 1.214,2.711 2.712,2.711 z" /></g><g
           transform="translate(203.539,382.5953)"
           id="g66"><path
             id="path68"
             style="fill:#26a8df;fill-opacity:1;fill-rule:nonzero;stroke:none"
             d="m 0,0 c -0.573,0 -1.039,0.466 -1.039,1.039 v 21.353 c 0,0.573 0.466,1.039 1.039,1.039 h 93.009 c 0.573,0 1.04,-0.466 1.04,-1.039 V 1.039 C 94.049,0.466 93.582,0 93.009,0 Z" /></g><g
           transform="translate(254.229,399.3321)"
           id="g70"><path
             id="path72"
             style="fill:#81d4fa;fill-opacity:1;fill-rule:nonzero;stroke:none"
             d="M 0,0 H -44.91 V -10.042 H 0 v 2.719 l 1.395,0.838 v 2.929 L 0,-2.719 Z m -0.837,-0.837 v -1.882 -0.474 l 0.406,-0.244 0.989,-0.593 v -1.982 l -0.989,-0.593 -0.406,-0.244 v -0.474 -1.882 h -43.236 v 8.368 z" /></g><g
           transform="translate(288.8889,397.8677)"
           id="g74"><path
             id="path76"
             style="fill:#81d4fa;fill-opacity:1;fill-rule:nonzero;stroke:none"
             d="m 0,0 c -1.964,0 -3.556,-1.592 -3.556,-3.557 0,-1.964 1.592,-3.556 3.556,-3.556 1.964,0 3.557,1.592 3.557,3.556 C 3.557,-1.592 1.964,0 0,0 m 0,-0.837 c 1.5,0 2.72,-1.22 2.72,-2.72 0,-1.499 -1.22,-2.719 -2.72,-2.719 -1.5,0 -2.72,1.22 -2.72,2.719 0,1.5 1.22,2.72 2.72,2.72" /></g><g
           transform="translate(282.6127,394.3111)"
           id="g78"><path
             id="path80"
             style="fill:#81d4fa;fill-opacity:1;fill-rule:nonzero;stroke:none"
             d="m 0,0 c 0,-1.964 -1.592,-3.556 -3.556,-3.556 -1.965,0 -3.557,1.592 -3.557,3.556 0,1.964 1.592,3.557 3.557,3.557 C -1.592,3.557 0,1.964 0,0" /></g><g
           transform="translate(266.2252,394.3111)"
           id="g82"><path
             id="path84"
             style="fill:#81d4fa;fill-opacity:1;fill-rule:nonzero;stroke:none"
             d="m 0,0 c 0,-0.79 -0.64,-1.43 -1.43,-1.43 -0.789,0 -1.43,0.64 -1.43,1.43 0,0.79 0.641,1.43 1.43,1.43 C -0.64,1.43 0,0.79 0,0" /></g><g
           id="g86"><g
             id="g88" /><g
             id="g100"><g
               style="opacity:0.14999402"
               id="g98"
               clip-path="url(#clipPath92)"><g
                 id="g96"
                 transform="translate(299.2578,391.3428)"><path
                   id="path94"
                   style="fill:#231f20;fill-opacity:1;fill-rule:nonzero;stroke:none"
                   d="m 0,0 v -7.707 c 0,-1.498 -1.213,-2.712 -2.711,-2.712 h -93.006 c -1.439,0 -2.611,1.113 -2.703,2.528 -0.008,0.058 -0.008,0.125 -0.008,0.184 V 0.117 C -83.014,-0.72 -28.988,-3.289 0,0" /></g></g></g></g><g
           transform="translate(295.3748,402.7126)"
           id="g102"><path
             id="path104"
             style="fill:#81d4fa;fill-opacity:1;fill-rule:nonzero;stroke:none"
             d="m 0,0 h -0.278 c -0.462,0 -0.837,0.375 -0.837,0.837 0,0.462 0.375,0.837 0.837,0.837 H 0 C 0.462,1.674 0.837,1.299 0.837,0.837 0.837,0.375 0.462,0 0,0" /></g><g
           transform="translate(291.6082,402.7126)"
           id="g106"><path
             id="path108"
             style="fill:#81d4fa;fill-opacity:1;fill-rule:nonzero;stroke:none"
             d="m 0,0 h -3.486 c -0.462,0 -0.837,0.375 -0.837,0.837 0,0.462 0.375,0.837 0.837,0.837 H 0 C 0.462,1.674 0.837,1.299 0.837,0.837 0.837,0.375 0.462,0 0,0" /></g><g
           transform="translate(284.0769,402.7126)"
           id="g110"><path
             id="path112"
             style="fill:#81d4fa;fill-opacity:1;fill-rule:nonzero;stroke:none"
             d="m 0,0 h -78.94 c -0.463,0 -0.837,0.375 -0.837,0.837 0,0.462 0.374,0.837 0.837,0.837 H 0 C 0.462,1.674 0.837,1.299 0.837,0.837 0.837,0.375 0.462,0 0,0" /></g><g
           transform="translate(299.2578,377.6665)"
           id="g114"><path
             id="path116"
             style="fill:#1b75ba;fill-opacity:1;fill-rule:nonzero;stroke:none"
             d="m 0,0 v -21.356 c 0,-1.498 -1.213,-2.711 -2.711,-2.711 h -93.006 c -1.439,0 -2.611,1.113 -2.703,2.527 -0.008,0.059 -0.008,0.126 -0.008,0.184 V 0 c 0,1.498 1.213,2.711 2.711,2.711 H -2.711 C -1.213,2.711 0,1.498 0,0" /></g><g
           transform="translate(296.3122,380.3779)"
           id="g118"><path
             id="path120"
             style="fill:#40c5f4;fill-opacity:1;fill-rule:nonzero;stroke:none"
             d="m 0,0 c 0,0 -0.718,-1.05 -0.718,-2.939 l -87.811,-2.752 v -16.736 l -6.945,-1.824 c -0.009,0.058 -0.009,0.125 -0.009,0.184 v 21.356 c 0,1.497 1.214,2.711 2.712,2.711 z" /></g><g
           transform="translate(203.539,355.2703)"
           id="g122"><path
             id="path124"
             style="fill:#26a8df;fill-opacity:1;fill-rule:nonzero;stroke:none"
             d="m 0,0 c -0.573,0 -1.039,0.466 -1.039,1.039 v 21.353 c 0,0.573 0.466,1.039 1.039,1.039 h 93.009 c 0.573,0 1.04,-0.466 1.04,-1.039 V 1.039 C 94.049,0.466 93.582,0 93.009,0 Z" /></g><g
           transform="translate(254.229,372.0071)"
           id="g126"><path
             id="path128"
             style="fill:#81d4fa;fill-opacity:1;fill-rule:nonzero;stroke:none"
             d="M 0,0 H -44.91 V -10.042 H 0 v 2.719 l 1.395,0.838 v 2.929 L 0,-2.719 Z m -0.837,-0.837 v -1.882 -0.474 l 0.406,-0.244 0.989,-0.593 v -1.982 l -0.989,-0.593 -0.406,-0.244 v -0.474 -1.882 h -43.236 v 8.368 z" /></g><g
           transform="translate(288.8889,370.5427)"
           id="g130"><path
             id="path132"
             style="fill:#81d4fa;fill-opacity:1;fill-rule:nonzero;stroke:none"
             d="m 0,0 c -1.964,0 -3.556,-1.592 -3.556,-3.557 0,-1.964 1.592,-3.556 3.556,-3.556 1.964,0 3.557,1.592 3.557,3.556 C 3.557,-1.592 1.964,0 0,0 m 0,-0.837 c 1.5,0 2.72,-1.22 2.72,-2.72 0,-1.499 -1.22,-2.719 -2.72,-2.719 -1.5,0 -2.72,1.22 -2.72,2.719 0,1.5 1.22,2.72 2.72,2.72" /></g><g
           transform="translate(282.6127,366.9862)"
           id="g134"><path
             id="path136"
             style="fill:#81d4fa;fill-opacity:1;fill-rule:nonzero;stroke:none"
             d="m 0,0 c 0,-1.964 -1.592,-3.557 -3.556,-3.557 -1.965,0 -3.557,1.593 -3.557,3.557 0,1.964 1.592,3.557 3.557,3.557 C -1.592,3.557 0,1.964 0,0" /></g><g
           transform="translate(266.2252,366.9862)"
           id="g138"><path
             id="path140"
             style="fill:#81d4fa;fill-opacity:1;fill-rule:nonzero;stroke:none"
             d="m 0,0 c 0,-0.79 -0.64,-1.43 -1.43,-1.43 -0.789,0 -1.43,0.64 -1.43,1.43 0,0.79 0.641,1.43 1.43,1.43 C -0.64,1.43 0,0.79 0,0" /></g><g
           id="g142"><g
             id="g144" /><g
             id="g156"><g
               style="opacity:0.14999402"
               id="g154"
               clip-path="url(#clipPath148)"><g
                 id="g152"
                 transform="translate(299.2578,364.0178)"><path
                   id="path150"
                   style="fill:#231f20;fill-opacity:1;fill-rule:nonzero;stroke:none"
                   d="m 0,0 v -7.707 c 0,-1.498 -1.213,-2.712 -2.711,-2.712 h -93.006 c -1.439,0 -2.611,1.113 -2.703,2.528 -0.008,0.058 -0.008,0.125 -0.008,0.184 V 0.117 C -83.014,-0.72 -28.988,-3.289 0,0" /></g></g></g></g><g
           transform="translate(295.3748,375.3872)"
           id="g158"><path
             id="path160"
             style="fill:#81d4fa;fill-opacity:1;fill-rule:nonzero;stroke:none"
             d="m 0,0 h -0.278 c -0.462,0 -0.837,0.375 -0.837,0.837 0,0.462 0.375,0.837 0.837,0.837 H 0 C 0.462,1.674 0.837,1.299 0.837,0.837 0.837,0.375 0.462,0 0,0" /></g><g
           transform="translate(291.6082,375.3872)"
           id="g162"><path
             id="path164"
             style="fill:#81d4fa;fill-opacity:1;fill-rule:nonzero;stroke:none"
             d="m 0,0 h -3.486 c -0.462,0 -0.837,0.375 -0.837,0.837 0,0.462 0.375,0.837 0.837,0.837 H 0 C 0.462,1.674 0.837,1.299 0.837,0.837 0.837,0.375 0.462,0 0,0" /></g><g
           transform="translate(284.0769,375.3872)"
           id="g166"><path
             id="path168"
             style="fill:#81d4fa;fill-opacity:1;fill-rule:nonzero;stroke:none"
             d="m 0,0 h -78.94 c -0.463,0 -0.837,0.375 -0.837,0.837 0,0.462 0.374,0.837 0.837,0.837 H 0 C 0.462,1.674 0.837,1.299 0.837,0.837 0.837,0.375 0.462,0 0,0" /></g><g
           transform="translate(299.2578,350.3417)"
           id="g170"><path
             id="path172"
             style="fill:#1b75ba;fill-opacity:1;fill-rule:nonzero;stroke:none"
             d="m 0,0 v -21.356 c 0,-1.498 -1.213,-2.711 -2.711,-2.711 h -93.006 c -1.439,0 -2.611,1.113 -2.703,2.527 -0.008,0.058 -0.008,0.125 -0.008,0.184 V 0 c 0,1.498 1.213,2.711 2.711,2.711 H -2.711 C -1.213,2.711 0,1.498 0,0" /></g><g
           transform="translate(296.3122,353.0529)"
           id="g174"><path
             id="path176"
             style="fill:#40c5f4;fill-opacity:1;fill-rule:nonzero;stroke:none"
             d="M 0,0 C 0,0 -0.718,-1.05 -0.718,-2.939 L -88.529,-5.69 v -16.737 l -6.945,-1.824 c -0.009,0.058 -0.009,0.125 -0.009,0.184 v 21.356 c 0,1.498 1.214,2.711 2.712,2.711 z" /></g><g
           transform="translate(203.539,327.9454)"
           id="g178"><path
             id="path180"
             style="fill:#26a8df;fill-opacity:1;fill-rule:nonzero;stroke:none"
             d="m 0,0 c -0.573,0 -1.039,0.466 -1.039,1.039 v 21.353 c 0,0.573 0.466,1.039 1.039,1.039 h 93.009 c 0.573,0 1.04,-0.466 1.04,-1.039 V 1.039 C 94.049,0.466 93.582,0 93.009,0 Z" /></g><g
           transform="translate(254.229,344.6823)"
           id="g182"><path
             id="path184"
             style="fill:#81d4fa;fill-opacity:1;fill-rule:nonzero;stroke:none"
             d="M 0,0 H -44.91 V -10.042 H 0 v 2.719 l 1.395,0.837 v 2.929 L 0,-2.719 Z m -0.837,-0.837 v -1.882 -0.474 l 0.406,-0.244 0.989,-0.593 v -1.982 l -0.989,-0.593 -0.406,-0.244 v -0.474 -1.882 h -43.236 v 8.368 z" /></g><g
           transform="translate(288.8889,343.2178)"
           id="g186"><path
             id="path188"
             style="fill:#81d4fa;fill-opacity:1;fill-rule:nonzero;stroke:none"
             d="m 0,0 c -1.964,0 -3.556,-1.592 -3.556,-3.557 0,-1.964 1.592,-3.556 3.556,-3.556 1.964,0 3.557,1.592 3.557,3.556 C 3.557,-1.592 1.964,0 0,0 m 0,-0.837 c 1.5,0 2.72,-1.22 2.72,-2.72 0,-1.499 -1.22,-2.719 -2.72,-2.719 -1.5,0 -2.72,1.22 -2.72,2.719 0,1.5 1.22,2.72 2.72,2.72" /></g><g
           transform="translate(282.6127,339.6613)"
           id="g190"><path
             id="path192"
             style="fill:#81d4fa;fill-opacity:1;fill-rule:nonzero;stroke:none"
             d="m 0,0 c 0,-1.964 -1.592,-3.557 -3.556,-3.557 -1.965,0 -3.557,1.593 -3.557,3.557 0,1.964 1.592,3.557 3.557,3.557 C -1.592,3.557 0,1.964 0,0" /></g><g
           transform="translate(266.2252,339.6613)"
           id="g194"><path
             id="path196"
             style="fill:#81d4fa;fill-opacity:1;fill-rule:nonzero;stroke:none"
             d="m 0,0 c 0,-0.79 -0.64,-1.43 -1.43,-1.43 -0.789,0 -1.43,0.64 -1.43,1.43 0,0.79 0.641,1.43 1.43,1.43 C -0.64,1.43 0,0.79 0,0" /></g><g
           id="g198"><g
             id="g200" /><g
             id="g212"><g
               style="opacity:0.14999402"
               id="g210"
               clip-path="url(#clipPath204)"><g
                 id="g208"
                 transform="translate(299.2578,336.6929)"><path
                   id="path206"
                   style="fill:#231f20;fill-opacity:1;fill-rule:nonzero;stroke:none"
                   d="m 0,0 v -7.707 c 0,-1.498 -1.213,-2.712 -2.711,-2.712 h -93.006 c -1.439,0 -2.611,1.113 -2.703,2.528 -0.008,0.058 -0.008,0.125 -0.008,0.184 V 0.117 C -83.014,-0.72 -28.988,-3.289 0,0" /></g></g></g></g><g
           transform="translate(295.3748,348.0623)"
           id="g214"><path
             id="path216"
             style="fill:#81d4fa;fill-opacity:1;fill-rule:nonzero;stroke:none"
             d="m 0,0 h -0.278 c -0.462,0 -0.837,0.375 -0.837,0.837 0,0.462 0.375,0.837 0.837,0.837 H 0 C 0.462,1.674 0.837,1.299 0.837,0.837 0.837,0.375 0.462,0 0,0" /></g><g
           transform="translate(291.6082,348.0623)"
           id="g218"><path
             id="path220"
             style="fill:#81d4fa;fill-opacity:1;fill-rule:nonzero;stroke:none"
             d="m 0,0 h -3.486 c -0.462,0 -0.837,0.375 -0.837,0.837 0,0.462 0.375,0.837 0.837,0.837 H 0 C 0.462,1.674 0.837,1.299 0.837,0.837 0.837,0.375 0.462,0 0,0" /></g><g
           transform="translate(284.0769,348.0623)"
           id="g222"><path
             id="path224"
             style="fill:#81d4fa;fill-opacity:1;fill-rule:nonzero;stroke:none"
             d="m 0,0 h -78.94 c -0.463,0 -0.837,0.375 -0.837,0.837 0,0.462 0.374,0.837 0.837,0.837 H 0 C 0.462,1.674 0.837,1.299 0.837,0.837 0.837,0.375 0.462,0 0,0" /></g><g
           transform="translate(299.2578,323.0167)"
           id="g226"><path
             id="path228"
             style="fill:#1b75ba;fill-opacity:1;fill-rule:nonzero;stroke:none"
             d="m 0,0 v -21.356 c 0,-1.498 -1.213,-2.711 -2.711,-2.711 h -93.006 c -1.439,0 -2.611,1.113 -2.703,2.527 -0.008,0.059 -0.008,0.125 -0.008,0.184 V 0 c 0,1.498 1.213,2.711 2.711,2.711 H -2.711 C -1.213,2.711 0,1.498 0,0" /></g><g
           transform="translate(296.3122,325.728)"
           id="g230"><path
             id="path232"
             style="fill:#40c5f4;fill-opacity:1;fill-rule:nonzero;stroke:none"
             d="M 0,0 C 0,0 -0.718,-1.05 -0.718,-2.939 L -88.529,-5.69 v -16.737 l -6.945,-1.824 c -0.009,0.058 -0.009,0.125 -0.009,0.184 v 21.356 c 0,1.498 1.214,2.711 2.712,2.711 z" /></g><g
           transform="translate(203.539,300.6204)"
           id="g234"><path
             id="path236"
             style="fill:#26a8df;fill-opacity:1;fill-rule:nonzero;stroke:none"
             d="m 0,0 c -0.573,0 -1.039,0.466 -1.039,1.039 v 21.353 c 0,0.573 0.466,1.039 1.039,1.039 h 93.009 c 0.573,0 1.04,-0.466 1.04,-1.039 V 1.039 C 94.049,0.466 93.582,0 93.009,0 Z" /></g><g
           transform="translate(254.229,317.3573)"
           id="g238"><path
             id="path240"
             style="fill:#81d4fa;fill-opacity:1;fill-rule:nonzero;stroke:none"
             d="M 0,0 H -44.91 V -10.042 H 0 v 2.719 l 1.395,0.837 v 2.929 L 0,-2.719 Z m -0.837,-0.837 v -1.882 -0.474 l 0.406,-0.244 0.989,-0.593 v -1.982 l -0.989,-0.593 -0.406,-0.244 v -0.474 -1.882 h -43.236 v 8.368 z" /></g><g
           transform="translate(288.8889,315.8928)"
           id="g242"><path
             id="path244"
             style="fill:#81d4fa;fill-opacity:1;fill-rule:nonzero;stroke:none"
             d="m 0,0 c -1.964,0 -3.556,-1.592 -3.556,-3.557 0,-1.964 1.592,-3.556 3.556,-3.556 1.964,0 3.557,1.592 3.557,3.556 C 3.557,-1.592 1.964,0 0,0 m 0,-0.837 c 1.5,0 2.72,-1.22 2.72,-2.72 0,-1.499 -1.22,-2.719 -2.72,-2.719 -1.5,0 -2.72,1.22 -2.72,2.719 0,1.5 1.22,2.72 2.72,2.72" /></g><g
           transform="translate(282.6127,312.3363)"
           id="g246"><path
             id="path248"
             style="fill:#81d4fa;fill-opacity:1;fill-rule:nonzero;stroke:none"
             d="m 0,0 c 0,-1.964 -1.592,-3.557 -3.556,-3.557 -1.965,0 -3.557,1.593 -3.557,3.557 0,1.964 1.592,3.557 3.557,3.557 C -1.592,3.557 0,1.964 0,0" /></g><g
           transform="translate(266.2252,312.3363)"
           id="g250"><path
             id="path252"
             style="fill:#81d4fa;fill-opacity:1;fill-rule:nonzero;stroke:none"
             d="m 0,0 c 0,-0.79 -0.64,-1.43 -1.43,-1.43 -0.789,0 -1.43,0.64 -1.43,1.43 0,0.79 0.641,1.43 1.43,1.43 C -0.64,1.43 0,0.79 0,0" /></g><g
           id="g254"><g
             id="g256" /><g
             id="g268"><g
               style="opacity:0.14999402"
               id="g266"
               clip-path="url(#clipPath260)"><g
                 id="g264"
                 transform="translate(299.2578,309.3679)"><path
                   id="path262"
                   style="fill:#231f20;fill-opacity:1;fill-rule:nonzero;stroke:none"
                   d="m 0,0 v -7.707 c 0,-1.498 -1.213,-2.712 -2.711,-2.712 h -93.006 c -1.439,0 -2.611,1.113 -2.703,2.528 -0.008,0.058 -0.008,0.125 -0.008,0.184 V 0.117 C -83.014,-0.72 -28.988,-3.289 0,0" /></g></g></g></g><g
           transform="translate(295.3748,320.7374)"
           id="g270"><path
             id="path272"
             style="fill:#81d4fa;fill-opacity:1;fill-rule:nonzero;stroke:none"
             d="m 0,0 h -0.278 c -0.462,0 -0.837,0.375 -0.837,0.837 0,0.462 0.375,0.837 0.837,0.837 H 0 C 0.462,1.674 0.837,1.299 0.837,0.837 0.837,0.375 0.462,0 0,0" /></g><g
           transform="translate(291.6082,320.7374)"
           id="g274"><path
             id="path276"
             style="fill:#81d4fa;fill-opacity:1;fill-rule:nonzero;stroke:none"
             d="m 0,0 h -3.486 c -0.462,0 -0.837,0.375 -0.837,0.837 0,0.462 0.375,0.837 0.837,0.837 H 0 C 0.462,1.674 0.837,1.299 0.837,0.837 0.837,0.375 0.462,0 0,0" /></g><g
           transform="translate(284.0769,320.7374)"
           id="g278"><path
             id="path280"
             style="fill:#81d4fa;fill-opacity:1;fill-rule:nonzero;stroke:none"
             d="m 0,0 h -78.94 c -0.463,0 -0.837,0.375 -0.837,0.837 0,0.462 0.374,0.837 0.837,0.837 H 0 C 0.462,1.674 0.837,1.299 0.837,0.837 0.837,0.375 0.462,0 0,0" /></g><g
           transform="translate(299.2578,295.6917)"
           id="g282"><path
             id="path284"
             style="fill:#1b75ba;fill-opacity:1;fill-rule:nonzero;stroke:none"
             d="m 0,0 v -21.356 c 0,-1.498 -1.213,-2.711 -2.711,-2.711 h -93.006 c -1.439,0 -2.611,1.113 -2.703,2.527 -0.008,0.059 -0.008,0.125 -0.008,0.184 V 0 c 0,1.498 1.213,2.711 2.711,2.711 H -2.711 C -1.213,2.711 0,1.498 0,0" /></g><g
           transform="translate(296.3122,298.403)"
           id="g286"><path
             id="path288"
             style="fill:#40c5f4;fill-opacity:1;fill-rule:nonzero;stroke:none"
             d="M 0,0 C 0,0 -0.718,-1.05 -0.718,-2.939 L -88.529,-5.69 v -16.737 l -6.945,-1.824 c -0.009,0.058 -0.009,0.125 -0.009,0.184 v 21.356 c 0,1.498 1.214,2.711 2.712,2.711 z" /></g><g
           transform="translate(203.539,273.2954)"
           id="g290"><path
             id="path292"
             style="fill:#26a8df;fill-opacity:1;fill-rule:nonzero;stroke:none"
             d="m 0,0 c -0.573,0 -1.039,0.466 -1.039,1.04 v 21.352 c 0,0.573 0.466,1.039 1.039,1.039 h 93.009 c 0.573,0 1.04,-0.466 1.04,-1.039 V 1.04 C 94.049,0.466 93.582,0 93.009,0 Z" /></g><g
           transform="translate(254.229,290.0323)"
           id="g294"><path
             id="path296"
             style="fill:#81d4fa;fill-opacity:1;fill-rule:nonzero;stroke:none"
             d="M 0,0 H -44.91 V -10.042 H 0 v 2.719 l 1.395,0.837 v 2.929 L 0,-2.719 Z m -0.837,-0.837 v -1.882 -0.474 l 0.406,-0.244 0.989,-0.593 v -1.982 l -0.989,-0.593 -0.406,-0.244 v -0.474 -1.882 h -43.236 v 8.368 z" /></g><g
           transform="translate(288.8889,288.5678)"
           id="g298"><path
             id="path300"
             style="fill:#81d4fa;fill-opacity:1;fill-rule:nonzero;stroke:none"
             d="m 0,0 c -1.964,0 -3.556,-1.592 -3.556,-3.556 0,-1.965 1.592,-3.557 3.556,-3.557 1.964,0 3.557,1.592 3.557,3.557 C 3.557,-1.592 1.964,0 0,0 m 0,-0.837 c 1.5,0 2.72,-1.22 2.72,-2.719 0,-1.5 -1.22,-2.72 -2.72,-2.72 -1.5,0 -2.72,1.22 -2.72,2.72 0,1.499 1.22,2.719 2.72,2.719" /></g><g
           transform="translate(282.6127,285.0114)"
           id="g302"><path
             id="path304"
             style="fill:#81d4fa;fill-opacity:1;fill-rule:nonzero;stroke:none"
             d="m 0,0 c 0,-1.964 -1.592,-3.557 -3.556,-3.557 -1.965,0 -3.557,1.593 -3.557,3.557 0,1.964 1.592,3.556 3.557,3.556 C -1.592,3.556 0,1.964 0,0" /></g><g
           transform="translate(266.2252,285.0114)"
           id="g306"><path
             id="path308"
             style="fill:#81d4fa;fill-opacity:1;fill-rule:nonzero;stroke:none"
             d="m 0,0 c 0,-0.79 -0.64,-1.43 -1.43,-1.43 -0.789,0 -1.43,0.64 -1.43,1.43 0,0.79 0.641,1.43 1.43,1.43 C -0.64,1.43 0,0.79 0,0" /></g><g
           id="g310"><g
             id="g312" /><g
             id="g324"><g
               style="opacity:0.14999402"
               id="g322"
               clip-path="url(#clipPath316)"><g
                 id="g320"
                 transform="translate(299.2578,282.043)"><path
                   id="path318"
                   style="fill:#231f20;fill-opacity:1;fill-rule:nonzero;stroke:none"
                   d="m 0,0 v -7.707 c 0,-1.498 -1.213,-2.712 -2.711,-2.712 h -93.006 c -1.439,0 -2.611,1.113 -2.703,2.528 -0.008,0.058 -0.008,0.125 -0.008,0.184 V 0.117 C -83.014,-0.72 -28.988,-3.289 0,0" /></g></g></g></g><g
           transform="translate(295.3748,293.4124)"
           id="g326"><path
             id="path328"
             style="fill:#81d4fa;fill-opacity:1;fill-rule:nonzero;stroke:none"
             d="m 0,0 h -0.278 c -0.462,0 -0.837,0.375 -0.837,0.837 0,0.462 0.375,0.837 0.837,0.837 H 0 C 0.462,1.674 0.837,1.299 0.837,0.837 0.837,0.375 0.462,0 0,0" /></g><g
           transform="translate(291.6082,293.4124)"
           id="g330"><path
             id="path332"
             style="fill:#81d4fa;fill-opacity:1;fill-rule:nonzero;stroke:none"
             d="m 0,0 h -3.486 c -0.462,0 -0.837,0.375 -0.837,0.837 0,0.462 0.375,0.837 0.837,0.837 H 0 C 0.462,1.674 0.837,1.299 0.837,0.837 0.837,0.375 0.462,0 0,0" /></g><g
           transform="translate(284.0769,293.4124)"
           id="g334"><path
             id="path336"
             style="fill:#81d4fa;fill-opacity:1;fill-rule:nonzero;stroke:none"
             d="m 0,0 h -78.94 c -0.463,0 -0.837,0.375 -0.837,0.837 0,0.462 0.374,0.837 0.837,0.837 H 0 C 0.462,1.674 0.837,1.299 0.837,0.837 0.837,0.375 0.462,0 0,0" /></g><g
           transform="translate(90.9875,352.324)"
           id="g338"><path
             id="path340"
             style="fill:#81d4fa;fill-opacity:1;fill-rule:nonzero;stroke:none"
             d="m 0,0 c -0.078,2.436 -2.076,4.388 -4.531,4.388 -0.056,0 -0.112,-0.003 -0.167,-0.005 -0.477,2.396 -2.59,4.201 -5.125,4.201 -2.542,0 -4.659,-1.815 -5.129,-4.219 -0.216,0.031 -0.437,0.048 -0.661,0.048 -2.45,0 -4.444,-1.942 -4.531,-4.37 h -1.693 c -2.164,0 -3.918,-1.754 -3.918,-3.918 0,-2.164 1.754,-3.918 3.918,-3.918 H -0.55 c 2.164,0 3.918,1.754 3.918,3.918 C 3.368,-1.898 1.903,-0.268 0,0" /></g><g
           transform="translate(89.339,352.8467)"
           id="g342"><path
             id="path344"
             style="fill:#caeaff;fill-opacity:1;fill-rule:nonzero;stroke:none"
             d="m 0,0 c -0.073,2.288 -1.95,4.12 -4.256,4.12 -0.052,0 -0.104,-0.002 -0.156,-0.003 -0.448,2.249 -2.432,3.944 -4.813,3.944 -2.387,0 -4.375,-1.704 -4.816,-3.962 -0.203,0.03 -0.411,0.046 -0.622,0.046 -2.3,0 -4.173,-1.824 -4.255,-4.105 h -1.589 c -2.032,0 -3.68,-1.647 -3.68,-3.679 0,-2.032 1.648,-3.68 3.68,-3.68 h 19.991 c 2.032,0 3.679,1.648 3.679,3.68 C 3.163,-1.783 1.787,-0.252 0,0" /></g><g
           transform="translate(436.0652,347.7002)"
           id="g346"><path
             id="path348"
             style="fill:#81d4fa;fill-opacity:1;fill-rule:nonzero;stroke:none"
             d="m 0,0 c -0.072,2.233 -1.903,4.021 -4.153,4.021 -0.051,0 -0.102,-0.002 -0.152,-0.004 -0.437,2.195 -2.374,3.849 -4.697,3.849 -2.329,0 -4.27,-1.663 -4.7,-3.866 -0.198,0.029 -0.4,0.044 -0.606,0.044 -2.245,0 -4.073,-1.779 -4.152,-4.005 h -1.551 c -1.983,0 -3.591,-1.607 -3.591,-3.59 0,-1.983 1.608,-3.591 3.591,-3.591 h 19.507 c 1.983,0 3.591,1.608 3.591,3.591 C 3.087,-1.74 1.744,-0.245 0,0" /></g><g
           transform="translate(434.5546,348.1791)"
           id="g350"><path
             id="path352"
             style="fill:#caeaff;fill-opacity:1;fill-rule:nonzero;stroke:none"
             d="m 0,0 c -0.067,2.097 -1.787,3.776 -3.9,3.776 -0.048,0 -0.096,-0.002 -0.143,-0.004 -0.411,2.062 -2.229,3.615 -4.411,3.615 -2.187,0 -4.009,-1.562 -4.414,-3.631 -0.186,0.027 -0.376,0.042 -0.569,0.042 -2.108,0 -3.825,-1.671 -3.899,-3.761 h -1.457 c -1.862,0 -3.372,-1.51 -3.372,-3.372 0,-1.862 1.51,-3.372 3.372,-3.372 h 18.32 c 1.862,0 3.372,1.51 3.372,3.372 C 2.899,-1.634 1.638,-0.231 0,0" /></g><g
           transform="translate(358.7564,376.7793)"
           id="g354"><path
             id="path356"
             style="fill:#81d4fa;fill-opacity:1;fill-rule:nonzero;stroke:none"
             d="m 0,0 c -0.085,2.666 -2.272,4.801 -4.958,4.801 -0.062,0 -0.122,-0.002 -0.183,-0.004 -0.522,2.62 -2.834,4.596 -5.608,4.596 -2.782,0 -5.098,-1.986 -5.612,-4.617 -0.237,0.035 -0.478,0.053 -0.724,0.053 -2.68,0 -4.863,-2.125 -4.958,-4.782 h -1.852 c -2.368,0 -4.288,-1.919 -4.288,-4.288 0,-2.367 1.92,-4.287 4.288,-4.287 h 23.293 c 2.368,0 4.288,1.92 4.288,4.287 C 3.686,-2.077 2.082,-0.293 0,0" /></g><g
           transform="translate(356.9525,377.3512)"
           id="g358"><path
             id="path360"
             style="fill:#caeaff;fill-opacity:1;fill-rule:nonzero;stroke:none"
             d="m 0,0 c -0.08,2.504 -2.134,4.509 -4.657,4.509 -0.057,0 -0.114,-0.002 -0.171,-0.004 -0.49,2.461 -2.662,4.316 -5.267,4.316 -2.612,0 -4.788,-1.865 -5.27,-4.336 -0.222,0.033 -0.449,0.05 -0.68,0.05 -2.517,0 -4.567,-1.996 -4.656,-4.491 h -1.739 c -2.224,0 -4.027,-1.803 -4.027,-4.026 0,-2.224 1.803,-4.027 4.027,-4.027 h 21.875 c 2.224,0 4.027,1.803 4.027,4.027 C 3.462,-1.951 1.956,-0.275 0,0" /></g><g
           transform="translate(112.8095,367.6205)"
           id="g362"><path
             id="path364"
             style="fill:#81d4fa;fill-opacity:1;fill-rule:nonzero;stroke:none"
             d="m 0,0 c 0.105,3.28 2.796,5.908 6.101,5.908 0.076,0 0.15,-0.003 0.225,-0.006 0.642,3.225 3.487,5.656 6.901,5.656 3.422,0 6.273,-2.444 6.905,-5.681 0.291,0.042 0.588,0.065 0.891,0.065 3.298,0 5.984,-2.615 6.101,-5.884 h 2.279 c 2.913,0 5.275,-2.362 5.275,-5.276 0,-2.914 -2.362,-5.276 -5.275,-5.276 H 0.74 c -2.914,0 -5.276,2.362 -5.276,5.276 0,2.662 1.974,4.857 4.536,5.218" /></g><g
           transform="translate(112.974,368.5214)"
           id="g366"><path
             id="path368"
             style="fill:#ffffff;fill-opacity:1;fill-rule:nonzero;stroke:none"
             d="m 0,0 c 0.099,3.081 2.625,5.548 5.73,5.548 0.071,0 0.141,-0.003 0.211,-0.005 0.603,3.028 3.275,5.311 6.481,5.311 3.214,0 5.891,-2.295 6.485,-5.335 0.273,0.04 0.552,0.062 0.836,0.062 3.097,0 5.62,-2.456 5.729,-5.527 h 2.141 c 2.736,0 4.954,-2.218 4.954,-4.954 0,-2.736 -2.218,-4.955 -4.954,-4.955 H 0.695 c -2.736,0 -4.954,2.219 -4.954,4.955 0,2.5 1.853,4.561 4.259,4.9" /></g></g></g><g
       id="g410"><g
         clip-path="url(#clipPath416)"
         id="g412"><g
           transform="translate(160.045,162.1716)"
           id="g418" /><g
           transform="translate(132.4775,163.3954)"
           id="g422"><path
             id="path424"
             style="fill:#26a8df;fill-opacity:1;fill-rule:nonzero;stroke:none"
             d="m 0,0 h -87.413 v 63.717 c 0,1.818 1.474,3.292 3.293,3.292 H -3.292 C -1.474,67.009 0,65.535 0,63.717 Z" /></g><path
           id="path426"
           style="fill:#1b75ba;fill-opacity:1;fill-rule:nonzero;stroke:none"
           d="M 129.97,178.189 H 47.572 v 46.783 h 82.398 z" /><g
           transform="translate(45.0649,173.9638)"
           id="g428"><path
             id="path430"
             style="fill:#81d4fa;fill-opacity:1;fill-rule:nonzero;stroke:none"
             d="M 0,0 -13.128,-10.568 H 100.54 L 87.413,0 Z" /></g><g
           transform="translate(141.425,157.0571)"
           id="g432"><path
             id="path434"
             style="fill:#26a8df;fill-opacity:1;fill-rule:nonzero;stroke:none"
             d="m 0,0 h -105.308 c -2.308,0 -4.18,1.872 -4.18,4.18 V 6.338 H 4.18 V 4.18 C 4.18,1.872 2.309,0 0,0" /></g><g
           transform="translate(110.0568,195.9969)"
           id="g436"><path
             id="path438"
             style="fill:#81d4fa;fill-opacity:1;fill-rule:nonzero;stroke:none"
             d="m 0,0 h -42.571 c -0.684,0 -1.238,0.554 -1.238,1.238 v 14.728 c 0,0.684 0.554,1.238 1.238,1.238 H 0 c 0.684,0 1.238,-0.554 1.238,-1.238 V 1.238 C 1.238,0.554 0.684,0 0,0" /></g><path
           id="path440"
           style="fill:#26a8df;fill-opacity:1;fill-rule:nonzero;stroke:none"
           d="M 106.315,207.655 H 71.228 v 2.264 h 35.087 z" /><path
           id="path442"
           style="fill:#26a8df;fill-opacity:1;fill-rule:nonzero;stroke:none"
           d="M 106.315,203.467 H 71.228 v 2.264 h 35.087 z" /><path
           id="path444"
           style="fill:#1b75ba;fill-opacity:1;fill-rule:nonzero;stroke:none"
           d="M 100.655,198.638 H 95.75 v 1.886 h 4.905 z" /><path
           id="path446"
           style="fill:#1b75ba;fill-opacity:1;fill-rule:nonzero;stroke:none"
           d="m 106.315,198.638 h -4.905 v 1.886 h 4.905 z" /><g
           transform="translate(129.9703,227.987)"
           id="g448"><path
             id="path450"
             style="fill:#81d4fa;fill-opacity:1;fill-rule:nonzero;stroke:none"
             d="m 0,0 h -1.033 c -0.418,0 -0.758,0.34 -0.758,0.758 0,0.418 0.34,0.758 0.758,0.758 H 0 c 0.419,0 0.758,-0.34 0.758,-0.758 C 0.758,0.34 0.419,0 0,0" /></g><g
           transform="translate(123.5042,227.987)"
           id="g452"><path
             id="path454"
             style="fill:#81d4fa;fill-opacity:1;fill-rule:nonzero;stroke:none"
             d="m 0,0 h -3.621 c -0.419,0 -0.758,0.34 -0.758,0.758 0,0.418 0.339,0.758 0.758,0.758 H 0 c 0.419,0 0.758,-0.34 0.758,-0.758 C 0.758,0.34 0.419,0 0,0" /></g><g
           transform="translate(112.7898,227.987)"
           id="g456"><path
             id="path458"
             style="fill:#81d4fa;fill-opacity:1;fill-rule:nonzero;stroke:none"
             d="m 0,0 h -65.217 c -0.419,0 -0.758,0.34 -0.758,0.758 0,0.418 0.339,0.758 0.758,0.758 H 0 c 0.419,0 0.758,-0.34 0.758,-0.758 C 0.758,0.34 0.419,0 0,0" /></g><g
           transform="translate(143.2709,160.8264)"
           id="g460"><path
             id="path462"
             style="fill:#81d4fa;fill-opacity:1;fill-rule:nonzero;stroke:none"
             d="m 0,0 h -1.207 c -0.419,0 -0.758,0.34 -0.758,0.758 0,0.418 0.339,0.758 0.758,0.758 H 0 c 0.419,0 0.758,-0.34 0.758,-0.758 C 0.758,0.34 0.419,0 0,0" /></g><g
           transform="translate(137.8386,160.8264)"
           id="g464"><path
             id="path466"
             style="fill:#81d4fa;fill-opacity:1;fill-rule:nonzero;stroke:none"
             d="m 0,0 h -3.771 c -0.419,0 -0.758,0.34 -0.758,0.758 0,0.418 0.339,0.758 0.758,0.758 H 0 c 0.419,0 0.758,-0.34 0.758,-0.758 C 0.758,0.34 0.419,0 0,0" /></g><g
           transform="translate(129.9703,160.8264)"
           id="g468"><path
             id="path470"
             style="fill:#81d4fa;fill-opacity:1;fill-rule:nonzero;stroke:none"
             d="m 0,0 h -95.651 c -0.419,0 -0.758,0.34 -0.758,0.758 0,0.418 0.339,0.758 0.758,0.758 H 0 c 0.419,0 0.758,-0.34 0.758,-0.758 C 0.758,0.34 0.419,0 0,0" /></g><g
           transform="translate(125.3152,223.4632)"
           id="g472"><path
             id="path474"
             style="fill:#81d4fa;fill-opacity:1;fill-rule:nonzero;stroke:none"
             d="m 0,0 h -76.814 c -0.25,0 -0.452,0.202 -0.452,0.453 0,0.25 0.202,0.452 0.452,0.452 H 0 C 0.25,0.905 0.453,0.703 0.453,0.453 0.453,0.202 0.25,0 0,0" /></g><g
           transform="translate(128.9375,223.4632)"
           id="g476"><path
             id="path478"
             style="fill:#81d4fa;fill-opacity:1;fill-rule:nonzero;stroke:none"
             d="m 0,0 h -0.604 c -0.25,0 -0.453,0.202 -0.453,0.453 0,0.25 0.203,0.452 0.453,0.452 H 0 C 0.25,0.905 0.453,0.703 0.453,0.453 0.453,0.202 0.25,0 0,0" /></g><g
           transform="translate(93.1469,235.8571)"
           id="g480" /><g
           transform="translate(95.8998,238.6101)"
           id="g484" /></g></g><g
       id="g512"><g
         clip-path="url(#clipPath518)"
         id="g514"><g
           transform="translate(456.3772,163.3954)"
           id="g524"><path
             id="path526"
             style="fill:#26a8df;fill-opacity:1;fill-rule:nonzero;stroke:none"
             d="m 0,0 h -87.413 v 63.717 c 0,1.818 1.474,3.292 3.293,3.292 H -3.292 C -1.474,67.009 0,65.535 0,63.717 Z" /></g><path
           id="path528"
           style="fill:#1b75ba;fill-opacity:1;fill-rule:nonzero;stroke:none"
           d="m 453.87,178.189 h -82.398 v 46.783 h 82.398 z" /><g
           transform="translate(368.9645,173.9638)"
           id="g530"><path
             id="path532"
             style="fill:#81d4fa;fill-opacity:1;fill-rule:nonzero;stroke:none"
             d="M 0,0 -13.128,-10.568 H 100.54 L 87.413,0 Z" /></g><g
           transform="translate(465.3247,157.0571)"
           id="g534"><path
             id="path536"
             style="fill:#26a8df;fill-opacity:1;fill-rule:nonzero;stroke:none"
             d="m 0,0 h -105.308 c -2.308,0 -4.18,1.872 -4.18,4.18 V 6.338 H 4.18 V 4.18 C 4.18,1.872 2.309,0 0,0" /></g><g
           transform="translate(433.9565,195.9969)"
           id="g538"><path
             id="path540"
             style="fill:#81d4fa;fill-opacity:1;fill-rule:nonzero;stroke:none"
             d="m 0,0 h -42.571 c -0.684,0 -1.238,0.554 -1.238,1.238 v 14.728 c 0,0.684 0.554,1.238 1.238,1.238 H 0 c 0.684,0 1.238,-0.554 1.238,-1.238 V 1.238 C 1.238,0.554 0.684,0 0,0" /></g><path
           id="path542"
           style="fill:#26a8df;fill-opacity:1;fill-rule:nonzero;stroke:none"
           d="m 430.214,207.655 h -35.087 v 2.264 h 35.087 z" /><path
           id="path544"
           style="fill:#26a8df;fill-opacity:1;fill-rule:nonzero;stroke:none"
           d="m 430.214,203.467 h -35.087 v 2.264 h 35.087 z" /><path
           id="path546"
           style="fill:#1b75ba;fill-opacity:1;fill-rule:nonzero;stroke:none"
           d="m 424.555,198.638 h -4.905 v 1.886 h 4.905 z" /><path
           id="path548"
           style="fill:#1b75ba;fill-opacity:1;fill-rule:nonzero;stroke:none"
           d="m 430.214,198.638 h -4.905 v 1.886 h 4.905 z" /><g
           transform="translate(453.8699,227.987)"
           id="g550"><path
             id="path552"
             style="fill:#81d4fa;fill-opacity:1;fill-rule:nonzero;stroke:none"
             d="m 0,0 h -1.033 c -0.418,0 -0.758,0.34 -0.758,0.758 0,0.418 0.34,0.758 0.758,0.758 H 0 c 0.419,0 0.758,-0.34 0.758,-0.758 C 0.758,0.34 0.419,0 0,0" /></g><g
           transform="translate(447.4039,227.987)"
           id="g554"><path
             id="path556"
             style="fill:#81d4fa;fill-opacity:1;fill-rule:nonzero;stroke:none"
             d="m 0,0 h -3.621 c -0.419,0 -0.758,0.34 -0.758,0.758 0,0.418 0.339,0.758 0.758,0.758 H 0 c 0.419,0 0.758,-0.34 0.758,-0.758 C 0.758,0.34 0.419,0 0,0" /></g><g
           transform="translate(436.6894,227.987)"
           id="g558"><path
             id="path560"
             style="fill:#81d4fa;fill-opacity:1;fill-rule:nonzero;stroke:none"
             d="m 0,0 h -65.217 c -0.419,0 -0.758,0.34 -0.758,0.758 0,0.418 0.339,0.758 0.758,0.758 H 0 c 0.419,0 0.758,-0.34 0.758,-0.758 C 0.758,0.34 0.419,0 0,0" /></g><g
           transform="translate(467.1706,160.8264)"
           id="g562"><path
             id="path564"
             style="fill:#81d4fa;fill-opacity:1;fill-rule:nonzero;stroke:none"
             d="m 0,0 h -1.207 c -0.419,0 -0.758,0.34 -0.758,0.758 0,0.418 0.339,0.758 0.758,0.758 H 0 c 0.419,0 0.758,-0.34 0.758,-0.758 C 0.758,0.34 0.419,0 0,0" /></g><g
           transform="translate(461.7382,160.8264)"
           id="g566"><path
             id="path568"
             style="fill:#81d4fa;fill-opacity:1;fill-rule:nonzero;stroke:none"
             d="m 0,0 h -3.772 c -0.418,0 -0.757,0.34 -0.757,0.758 0,0.418 0.339,0.758 0.757,0.758 H 0 c 0.419,0 0.758,-0.34 0.758,-0.758 C 0.758,0.34 0.419,0 0,0" /></g><g
           transform="translate(453.8699,160.8264)"
           id="g570"><path
             id="path572"
             style="fill:#81d4fa;fill-opacity:1;fill-rule:nonzero;stroke:none"
             d="m 0,0 h -95.651 c -0.419,0 -0.758,0.34 -0.758,0.758 0,0.418 0.339,0.758 0.758,0.758 H 0 c 0.419,0 0.758,-0.34 0.758,-0.758 C 0.758,0.34 0.419,0 0,0" /></g><g
           transform="translate(449.2148,223.4632)"
           id="g574"><path
             id="path576"
             style="fill:#81d4fa;fill-opacity:1;fill-rule:nonzero;stroke:none"
             d="m 0,0 h -76.814 c -0.25,0 -0.453,0.202 -0.453,0.453 0,0.25 0.203,0.452 0.453,0.452 H 0 C 0.25,0.905 0.453,0.703 0.453,0.453 0.453,0.202 0.25,0 0,0" /></g><g
           transform="translate(452.8371,223.4632)"
           id="g578"><path
             id="path580"
             style="fill:#81d4fa;fill-opacity:1;fill-rule:nonzero;stroke:none"
             d="m 0,0 h -0.604 c -0.25,0 -0.453,0.202 -0.453,0.453 0,0.25 0.203,0.452 0.453,0.452 H 0 C 0.25,0.905 0.453,0.703 0.453,0.453 0.453,0.202 0.25,0 0,0" /></g></g></g><g
       id="g614"><g
         clip-path="url(#clipPath620)"
         id="g616"><g
           transform="translate(298.2691,104.4058)"
           id="g626"><path
             id="path628"
             style="fill:#26a8df;fill-opacity:1;fill-rule:nonzero;stroke:none"
             d="m 0,0 h -96.538 v 70.369 c 0,2.008 1.628,3.636 3.636,3.636 H -3.636 C -1.628,74.005 0,72.377 0,70.369 Z" /></g><path
           id="path630"
           style="fill:#1b75ba;fill-opacity:1;fill-rule:nonzero;stroke:none"
           d="m 295.5,120.744 h -91 v 51.667 h 91 z" /><g
           transform="translate(201.7307,116.0775)"
           id="g632"><path
             id="path634"
             style="fill:#81d4fa;fill-opacity:1;fill-rule:nonzero;stroke:none"
             d="M 0,0 -14.498,-11.672 H 111.037 L 96.538,0 Z" /></g><g
           transform="translate(308.1508,97.4058)"
           id="g636"><path
             id="path638"
             style="fill:#26a8df;fill-opacity:1;fill-rule:nonzero;stroke:none"
             d="m 0,0 h -116.302 c -2.549,0 -4.616,2.067 -4.616,4.617 V 7 H 4.617 V 4.617 C 4.617,2.067 2.55,0 0,0" /></g><g
           transform="translate(273.5078,140.4108)"
           id="g640"><path
             id="path642"
             style="fill:#81d4fa;fill-opacity:1;fill-rule:nonzero;stroke:none"
             d="m 0,0 h -47.016 c -0.755,0 -1.367,0.612 -1.367,1.367 v 16.266 c 0,0.755 0.612,1.367 1.367,1.367 H 0 c 0.755,0 1.367,-0.612 1.367,-1.367 V 1.367 C 1.367,0.612 0.755,0 0,0" /></g><path
           id="path644"
           style="fill:#26a8df;fill-opacity:1;fill-rule:nonzero;stroke:none"
           d="m 269.375,153.286 h -38.75 v 2.5 h 38.75 z" /><path
           id="path646"
           style="fill:#26a8df;fill-opacity:1;fill-rule:nonzero;stroke:none"
           d="m 269.375,148.661 h -38.75 v 2.5 h 38.75 z" /><path
           id="path648"
           style="fill:#1b75ba;fill-opacity:1;fill-rule:nonzero;stroke:none"
           d="m 263.125,143.328 h -5.417 v 2.083 h 5.417 z" /><path
           id="path650"
           style="fill:#1b75ba;fill-opacity:1;fill-rule:nonzero;stroke:none"
           d="m 269.375,143.328 h -5.417 v 2.083 h 5.417 z" /><g
           transform="translate(295.5002,175.7406)"
           id="g652"><path
             id="path654"
             style="fill:#81d4fa;fill-opacity:1;fill-rule:nonzero;stroke:none"
             d="m 0,0 h -1.141 c -0.462,0 -0.837,0.375 -0.837,0.837 0,0.462 0.375,0.837 0.837,0.837 H 0 C 0.462,1.674 0.837,1.299 0.837,0.837 0.837,0.375 0.462,0 0,0" /></g><g
           transform="translate(288.359,175.7406)"
           id="g656"><path
             id="path658"
             style="fill:#81d4fa;fill-opacity:1;fill-rule:nonzero;stroke:none"
             d="m 0,0 h -4 c -0.462,0 -0.836,0.375 -0.836,0.837 0,0.462 0.374,0.837 0.836,0.837 H 0 C 0.462,1.674 0.837,1.299 0.837,0.837 0.837,0.375 0.462,0 0,0" /></g><g
           transform="translate(276.526,175.7406)"
           id="g660"><path
             id="path662"
             style="fill:#81d4fa;fill-opacity:1;fill-rule:nonzero;stroke:none"
             d="m 0,0 h -72.026 c -0.462,0 -0.837,0.375 -0.837,0.837 0,0.462 0.375,0.837 0.837,0.837 H 0 C 0.462,1.674 0.837,1.299 0.837,0.837 0.837,0.375 0.462,0 0,0" /></g><g
           transform="translate(310.1894,101.5686)"
           id="g664"><path
             id="path666"
             style="fill:#81d4fa;fill-opacity:1;fill-rule:nonzero;stroke:none"
             d="m 0,0 h -1.333 c -0.463,0 -0.837,0.375 -0.837,0.837 0,0.462 0.374,0.837 0.837,0.837 H 0 C 0.462,1.674 0.837,1.299 0.837,0.837 0.837,0.375 0.462,0 0,0" /></g><g
           transform="translate(304.1899,101.5686)"
           id="g668"><path
             id="path670"
             style="fill:#81d4fa;fill-opacity:1;fill-rule:nonzero;stroke:none"
             d="m 0,0 h -4.165 c -0.463,0 -0.837,0.375 -0.837,0.837 0,0.462 0.374,0.837 0.837,0.837 H 0 C 0.462,1.674 0.837,1.299 0.837,0.837 0.837,0.375 0.462,0 0,0" /></g><g
           transform="translate(295.5002,101.5686)"
           id="g672"><path
             id="path674"
             style="fill:#81d4fa;fill-opacity:1;fill-rule:nonzero;stroke:none"
             d="m 0,0 h -105.637 c -0.462,0 -0.837,0.375 -0.837,0.837 0,0.462 0.375,0.837 0.837,0.837 H 0 C 0.462,1.674 0.837,1.299 0.837,0.837 0.837,0.375 0.462,0 0,0" /></g><g
           transform="translate(290.359,170.7445)"
           id="g676"><path
             id="path678"
             style="fill:#81d4fa;fill-opacity:1;fill-rule:nonzero;stroke:none"
             d="m 0,0 h -84.833 c -0.276,0 -0.5,0.224 -0.5,0.5 0,0.276 0.224,0.5 0.5,0.5 H 0 C 0.276,1 0.5,0.776 0.5,0.5 0.5,0.224 0.276,0 0,0" /></g><g
           transform="translate(294.3595,170.7445)"
           id="g680"><path
             id="path682"
             style="fill:#81d4fa;fill-opacity:1;fill-rule:nonzero;stroke:none"
             d="m 0,0 h -0.667 c -0.276,0 -0.5,0.224 -0.5,0.5 0,0.276 0.224,0.5 0.5,0.5 H 0 C 0.276,1 0.5,0.776 0.5,0.5 0.5,0.224 0.276,0 0,0" /></g><g
           transform="translate(250.0004,262.7829)"
           id="g684"><path
             id="path686"
             style="fill:none;stroke:#81d4fa;stroke-width:3;stroke-linecap:round;stroke-linejoin:round;stroke-miterlimit:4;stroke-dasharray:none;stroke-opacity:1"
             d="M 0,0 V -1.5" /></g><g
           transform="translate(250.0004,256.0388)"
           id="g688"><path
             id="path690"
             style="fill:none;stroke:#81d4fa;stroke-width:3;stroke-linecap:round;stroke-linejoin:round;stroke-miterlimit:4;stroke-dasharray:3.146, 5.244;stroke-dashoffset:0;stroke-opacity:1"
             d="M 0,0 V -47.722" /></g><g
           transform="translate(250.0004,205.6952)"
           id="g692"><path
             id="path694"
             style="fill:none;stroke:#81d4fa;stroke-width:3;stroke-linecap:round;stroke-linejoin:round;stroke-miterlimit:4;stroke-dasharray:none;stroke-opacity:1"
             d="M 0,0 V -1.5" /></g><g
           transform="translate(269.9351,262.7829)"
           id="g696"><path
             id="path698"
             style="fill:none;stroke:#81d4fa;stroke-width:3;stroke-linecap:round;stroke-linejoin:round;stroke-miterlimit:10;stroke-dasharray:3, 5;stroke-dashoffset:0;stroke-opacity:1"
             d="m 0,0 37.023,-49.818 h 55.19" /></g><g
           transform="translate(230.0649,262.7829)"
           id="g700"><path
             id="path702"
             style="fill:none;stroke:#81d4fa;stroke-width:3;stroke-linecap:round;stroke-linejoin:round;stroke-miterlimit:10;stroke-dasharray:3, 5;stroke-dashoffset:0;stroke-opacity:1"
             d="m 0,0 -37.023,-49.818 h -55.19" /></g><g
           transform="translate(257.8496,186.9861)"
           id="g708" /><g
           transform="translate(402.1786,315.8788)"
           id="g716"><path
             id="path718"
             style="fill:#81d4fa;fill-opacity:1;fill-rule:nonzero;stroke:none"
             d="m 0,0 c -0.127,3.956 -3.371,7.125 -7.358,7.125 -0.091,0 -0.181,-0.004 -0.271,-0.007 -0.775,3.889 -4.206,6.821 -8.322,6.821 -4.128,0 -7.566,-2.947 -8.328,-6.852 -0.351,0.052 -0.709,0.079 -1.075,0.079 -3.977,0 -7.216,-3.153 -7.357,-7.096 h -2.748 c -3.514,0 -6.363,-2.849 -6.363,-6.363 0,-3.513 2.849,-6.362 6.363,-6.362 h 34.566 c 3.514,0 6.363,2.849 6.363,6.362 C 5.47,-3.082 3.09,-0.435 0,0" /></g><g
           transform="translate(399.5017,316.7274)"
           id="g720"><path
             id="path722"
             style="fill:#ffffff;fill-opacity:1;fill-rule:nonzero;stroke:none"
             d="m 0,0 c -0.119,3.715 -3.166,6.691 -6.91,6.691 -0.085,0 -0.17,-0.003 -0.255,-0.006 -0.727,3.652 -3.949,6.405 -7.815,6.405 -3.876,0 -7.105,-2.767 -7.821,-6.434 -0.329,0.048 -0.666,0.074 -1.009,0.074 -3.735,0 -6.777,-2.962 -6.909,-6.665 H -33.3 c -3.3,0 -5.975,-2.675 -5.975,-5.974 0,-3.301 2.675,-5.976 5.975,-5.976 h 32.462 c 3.3,0 5.975,2.675 5.975,5.976 0,3.014 -2.235,5.5 -5.137,5.909" /></g><g
           transform="translate(335.8535,339.0193)"
           id="g724"><path
             id="path726"
             style="fill:#81d4fa;fill-opacity:1;fill-rule:nonzero;stroke:none"
             d="m 0,0 c -0.127,3.956 -3.371,7.125 -7.358,7.125 -0.091,0 -0.181,-0.004 -0.271,-0.007 -0.775,3.889 -4.206,6.821 -8.323,6.821 -4.127,0 -7.565,-2.947 -8.327,-6.852 -0.351,0.052 -0.71,0.079 -1.075,0.079 -3.977,0 -7.216,-3.153 -7.357,-7.096 h -2.748 c -3.514,0 -6.363,-2.849 -6.363,-6.363 0,-3.514 2.849,-6.362 6.363,-6.362 h 34.566 c 3.514,0 6.363,2.848 6.363,6.362 C 5.47,-3.083 3.09,-0.435 0,0" /></g><g
           transform="translate(333.1766,339.8679)"
           id="g728"><path
             id="path730"
             style="fill:#ffffff;fill-opacity:1;fill-rule:nonzero;stroke:none"
             d="m 0,0 c -0.119,3.715 -3.166,6.691 -6.91,6.691 -0.086,0 -0.17,-0.003 -0.255,-0.006 -0.727,3.652 -3.949,6.405 -7.815,6.405 -3.877,0 -7.105,-2.767 -7.821,-6.434 -0.329,0.048 -0.666,0.074 -1.009,0.074 -3.735,0 -6.777,-2.962 -6.909,-6.665 H -33.3 c -3.3,0 -5.975,-2.675 -5.975,-5.975 0,-3.3 2.675,-5.975 5.975,-5.975 h 32.462 c 3.3,0 5.975,2.675 5.975,5.975 C 5.137,-2.895 2.902,-0.409 0,0" /></g><g
           transform="translate(260.9597,410.2466)"
           id="g732"><path
             id="path734"
             style="fill:#81d4fa;fill-opacity:1;fill-rule:nonzero;stroke:none"
             d="m 0,0 c -0.09,2.823 -2.406,5.084 -5.251,5.084 -0.065,0 -0.129,-0.002 -0.193,-0.004 -0.553,2.775 -3.001,4.867 -5.939,4.867 -2.945,0 -5.399,-2.103 -5.943,-4.889 -0.25,0.036 -0.506,0.056 -0.766,0.056 -2.839,0 -5.15,-2.25 -5.251,-5.064 h -1.961 c -2.508,0 -4.54,-2.033 -4.54,-4.541 0,-2.507 2.032,-4.54 4.54,-4.54 h 24.667 c 2.508,0 4.54,2.033 4.54,4.54 C 3.903,-2.2 2.205,-0.31 0,0" /></g><g
           transform="translate(259.0495,410.8522)"
           id="g736"><path
             id="path738"
             style="fill:#ffffff;fill-opacity:1;fill-rule:nonzero;stroke:none"
             d="m 0,0 c -0.085,2.651 -2.259,4.775 -4.931,4.775 -0.061,0 -0.121,-0.003 -0.182,-0.005 -0.519,2.607 -2.818,4.571 -5.577,4.571 -2.766,0 -5.07,-1.975 -5.581,-4.591 -0.235,0.034 -0.476,0.053 -0.72,0.053 -2.666,0 -4.836,-2.114 -4.931,-4.756 h -1.842 c -2.354,0 -4.263,-1.909 -4.263,-4.264 0,-2.355 1.909,-4.264 4.263,-4.264 h 23.166 c 2.355,0 4.264,1.909 4.264,4.264 C 3.666,-2.066 2.071,-0.292 0,0" /></g><g
           transform="translate(135.3173,310.721)"
           id="g740"><path
             id="path742"
             style="fill:#81d4fa;fill-opacity:1;fill-rule:nonzero;stroke:none"
             d="m 0,0 c 0.24,7.504 6.395,13.515 13.958,13.515 0.172,0 0.343,-0.007 0.513,-0.013 1.469,7.377 7.978,12.938 15.787,12.938 7.829,0 14.35,-5.59 15.797,-12.996 0.665,0.097 1.345,0.15 2.037,0.15 7.545,0 13.689,-5.982 13.957,-13.462 h 5.213 c 6.665,0 12.068,-5.403 12.068,-12.068 0,-6.666 -5.403,-12.069 -12.068,-12.069 H 1.693 c -6.665,0 -12.069,5.403 -12.069,12.069 0,6.089 4.514,11.111 10.376,11.936" /></g><g
           transform="translate(135.6938,312.7818)"
           id="g744"><path
             id="path746"
             style="fill:#ffffff;fill-opacity:1;fill-rule:nonzero;stroke:none"
             d="m 0,0 c 0.226,7.047 6.006,12.692 13.108,12.692 0.162,0 0.322,-0.006 0.482,-0.012 1.38,6.928 7.492,12.15 14.826,12.15 7.352,0 13.476,-5.249 14.835,-12.204 0.625,0.091 1.263,0.14 1.913,0.14 7.086,0 12.856,-5.618 13.107,-12.642 h 4.896 c 6.259,0 11.334,-5.074 11.334,-11.334 0,-6.259 -5.075,-11.334 -11.334,-11.334 H 1.59 c -6.26,0 -11.334,5.075 -11.334,11.334 0,5.719 4.239,10.435 9.744,11.21" /></g></g></g></g></svg>