<?xml version="1.0" encoding="UTF-8" standalone="no"?>
<svg
   xmlns:dc="http://purl.org/dc/elements/1.1/"
   xmlns:cc="http://creativecommons.org/ns#"
   xmlns:rdf="http://www.w3.org/1999/02/22-rdf-syntax-ns#"
   xmlns:svg="http://www.w3.org/2000/svg"
   xmlns="http://www.w3.org/2000/svg"
   viewBox="0 0 1466.6667 1066.6667"
   height="1066.6667"
   width="1466.6667"
   xml:space="preserve"
   id="svg2"
   version="1.1"><metadata
     id="metadata8"><rdf:RDF><cc:Work
         rdf:about=""><dc:format>image/svg+xml</dc:format><dc:type
           rdf:resource="http://purl.org/dc/dcmitype/StillImage" /><dc:title></dc:title></cc:Work></rdf:RDF></metadata><defs
     id="defs6" /><g
     transform="matrix(1.3333333,0,0,-1.3333333,0,1066.6667)"
     id="g10"><g
       transform="scale(0.1)"
       id="g12"><path
         id="path14"
         style="fill:#ffffff;fill-opacity:1;fill-rule:nonzero;stroke:none"
         d="M 0,0 H 11000 V 8000 H 0 Z" /><path
         id="path16"
         style="fill:#f6eaea;fill-opacity:1;fill-rule:nonzero;stroke:none"
         d="m 9178.45,260.969 c -61.63,0 -123.58,2.32 -186.24,7.992 -239.37,21.629 -482,32.441 -720.18,63.309 -546.62,70.89 -1093.49,75.07 -1644.09,75.07 -218.62,0 -437.21,1.98 -655.78,1.98 -318.25,0 -636.39,-4.191 -954.01,-24.781 -495.58,-32.117 -992,-37.238 -1488.48,-37.238 -74.79,0 -149.59,0.121 -224.38,0.281 -4.86,0.008 -9.72,0.008 -14.59,0.008 -274.8,0 -548.53,-16.399 -822.91,-27.981 -275.66,-11.64 -543.71,-30.75 -817.78,-30.75 -24.71,0 -49.51,0.161 -74.33,0.493 -273.84,3.648 -690.805,80.91 -886.168,277.847 -115.985,117.012 -100.266,398.512 15.898,511.331 50.75,49.28 132.559,87.89 199.387,111.36 190.353,66.91 384.093,67.06 583.003,68.46 2.42,0.02 4.84,0.03 7.26,0.03 137.28,0 280.01,-26.8 411.59,-64.03 119.69,-33.87 241.97,-45.75 363.7,-66.83 99.6,-17.26 206.17,-25.52 311.56,-25.52 68.6,0 136.7,3.51 202.04,10.31 176.74,18.38 354.74,26.93 532.01,41.42 220.11,18 435.53,57.02 654.88,77.94 109.8,10.47 217.07,36.43 326.63,48.23 290.58,31.3 581.67,38.08 872.76,38.92 23.57,0.07 47.13,0.1 70.7,0.1 138.61,0 277.23,-1.01 415.77,-1.01 112.62,0 225.16,0.33 337.72,0.33 385.33,0 770.34,-3.83 1154.63,-37.67 119.08,-10.49 237.38,-4.14 354.8,-29.1 117.88,-25.06 236.88,-47.91 357.66,-52.38 103.4,-3.82 207.09,-5.08 310.92,-5.08 184.5,0 369.35,3.98 553.23,4.62 18.43,0.07 44.06,0.18 75.87,0.18 411.73,0 1846.07,-18.32 1743.17,-389.021 C 10505.2,667.34 10275.3,481.941 10146.4,422.27 9983.53,346.891 9805.4,302.281 9626.11,287.25 9475,274.57 9327.66,260.969 9178.45,260.969" /><path
         id="path18"
         style="fill:#eac1a4;fill-opacity:1;fill-rule:nonzero;stroke:none"
         d="m 3290.79,5566.14 60.69,40.86 69.4,-30.87 34.65,-64.61 -24.49,-49.2 -62.12,-27.42 21.51,-8.36 -6.05,-17.63 -96.32,-31.67 c -19.52,25.4 -91.94,51.25 -102.39,64.86 l 67.16,45.95 37.96,78.09" /><path
         id="path20"
         style="fill:#babcbe;fill-opacity:1;fill-rule:nonzero;stroke:none"
         d="m 2008.4,3194.39 -672.69,247.38 138.66,-1178.43 -80.35,-1016.68 -2.15,-6.77 1.61,-0.18 -0.18,-2.22 132.7,-12.65 0.03,0.13 4.93,-0.55 296.29,905.81 156.83,964.87 24.32,99.29" /><path
         id="path22"
         style="fill:#272742;fill-opacity:1;fill-rule:nonzero;stroke:none"
         d="m 1519.09,1178.51 -137.62,3.48 -35.14,-116.12 3.46,-1.04 -0.87,-0.09 227.53,-134.818 108.18,-12.031 13.74,123.639 -29.22,21.41 -150.06,115.57" /><path
         id="path24"
         style="fill:#babcbe;fill-opacity:1;fill-rule:nonzero;stroke:none"
         d="M 2466.61,3174.15 2264.74,1156.46 2131.57,1150.41 1997.8,2239.88 1765.92,3324.9 2466.61,3174.15" /><path
         id="path26"
         style="fill:#272742;fill-opacity:1;fill-rule:nonzero;stroke:none"
         d="m 2264.38,1109.61 176.37,-100 -16.52,-83.208 -315.14,47.489 18.55,119.899 136.74,15.82" /><path
         id="path28"
         style="fill:#d67086;fill-opacity:1;fill-rule:nonzero;stroke:none"
         d="m 2782,2667.43 c 42.57,29.55 43.48,81.02 43.4,132.56 -0.14,96.78 -17.55,195.71 -39.73,289.77 -42.24,176.44 -90.12,388.95 -111.19,617.58 -54.42,590.91 -241.02,987.44 -241.02,987.44 l -60.22,160.56 c -11.96,20.88 -24.37,41.53 -37.34,61.87 -75.21,118 -205.78,318.55 -345.43,351.37 -2.91,0.7 -5.85,1.36 -8.8,2.01 -146.83,32.22 -334.97,17.27 -467.66,-54.12 -25.17,-13.54 -47.56,-31.58 -69.79,-49.51 -64.88,-52.33 -117.79,-80.67 -145.77,-160.43 -24.29,-69.24 -29.93,-144.81 -43.32,-216.57 -27.21,-145.8 -43.44,-293.35 -65.16,-440 -40.73,-274.99 -75.33,-550.89 -118.91,-825.47 -22.43,-141.31 -45.02,-282.88 -55.61,-425.68 -9.37,-126.24 -123.262,-254.44 -187.266,-367.59 -22.278,-39.37 297.596,-141.4 326.256,-148.08 132.69,-30.88 273.84,-22.99 410.62,-23.62 299.74,-1.36 599.54,7.89 898.64,27.72 99.39,6.59 221.87,25.55 310.06,75.05 2.91,1.63 5.65,3.34 8.24,5.14" /><path
         id="path30"
         style="fill:#d67086;fill-opacity:1;fill-rule:nonzero;stroke:none"
         d="m 1817.03,5286.75 c 0,0 -168.85,45.57 -192.18,-335.4 -23.32,-380.98 -62.19,-1345.08 -116.62,-1609.44 -54.42,-264.34 -136.06,-782.85 -136.06,-782.85 l 517.04,-17.97 590.9,46.65 c 0,0 -202.15,373.21 -233.25,637.55 -31.1,264.36 23.33,1259.55 -108.85,1632.76 -132.18,373.2 -159.91,421.99 -320.98,428.7" /><path
         id="path32"
         style="fill:#d67086;fill-opacity:1;fill-rule:nonzero;stroke:none"
         d="m 2170.29,4841.43 376.78,-204.85 227.1,77.76 581.1,638.87 -154.37,139.55 -616.74,-482.1 -485.45,211.8 71.58,-381.03" /><path
         id="path34"
         style="fill:#353a85;fill-opacity:1;fill-rule:nonzero;stroke:none"
         d="m 2052.53,5588.58 c 25.55,-76.71 -11.43,-158.5 -43.89,-228.41 -28.79,-61.99 -38.79,-102.8 34.28,-119.52 41.17,-9.43 114.23,-27.01 150.34,4.51 27.34,23.88 11.96,97.63 -1.34,126.93 -10.15,22.36 -37.04,33.73 -46.6,56.37 -3.94,9.32 -4.51,19.69 -4.65,29.82 -0.57,41.36 5.15,82.79 16.91,122.44 7.99,26.94 18.8,53.38 21.21,81.37 3.5,40.57 -25.2,87.85 -40.27,125.14 -28.06,69.36 -125.69,162.4 -207.45,107.95 -18.62,-12.4 -29.46,-33.35 -38.51,-53.8 -5.41,-12.21 -10.56,-24.95 -10.71,-38.31 -0.64,-53.26 47.98,-62.24 81.57,-87.58 41.4,-31.26 72.8,-77.95 89.11,-126.91" /><path
         id="path36"
         style="fill:#eac1a4;fill-opacity:1;fill-rule:nonzero;stroke:none"
         d="m 1897.03,5289.26 c 70.91,16.7 126.35,76.24 153,144.05 26.64,67.8 28.03,143 20.66,215.47 -24.52,241.19 -324.55,225.7 -426.14,40.85 -88.54,-161.1 46.29,-448.95 252.48,-400.37" /><path
         id="path38"
         style="fill:#eac1a4;fill-opacity:1;fill-rule:nonzero;stroke:none"
         d="m 1896.95,5315.24 c -1.19,-27.47 -2.38,-54.94 -3.56,-82.42 -0.18,-4.02 -0.51,-8.44 -3.33,-11.32 -3.2,-3.28 -8.37,-3.34 -12.95,-3.18 -22.38,0.77 -44.78,1.55 -67.17,2.32 -11.09,0.39 -22.64,0.88 -32.42,6.14 -21.42,11.49 -25.84,40.51 -22.42,64.59 3.42,24.06 12.05,48.31 6.94,72.08 46.24,-22.79 90.15,28.69 136.38,5.91 l -1.47,-54.12" /><path
         id="path40"
         style="fill:#353a85;fill-opacity:1;fill-rule:nonzero;stroke:none"
         d="m 1800.2,6066.92 c -78.78,-26.75 -129.3,-106.44 -206.18,-138.26 -44.09,-18.25 -96.27,-20.56 -132.23,-51.92 -80.63,-70.27 -15.83,-217.7 -82.06,-301.65 -13.77,-17.46 -32.34,-30.66 -46.17,-48.07 -29.82,-37.56 -33.72,-88.82 -36.38,-136.7 -0.6,-10.77 -0.71,-22.51 1.16,-33.35 10.36,-110.57 170.89,-103.54 234.66,-96.46 69.97,7.77 46.65,46.65 46.65,46.65 l -2.55,3.1 c -6.71,44.9 11.75,92.79 47.03,121.39 13.09,10.62 28.57,19.06 37.79,33.16 20.73,31.65 0.95,73.58 3.99,111.27 12.26,151.85 267.1,119.3 339.02,227.41 88.19,132.56 -55.96,313.98 -204.73,263.43" /><path
         id="path42"
         style="fill:#eac1a4;fill-opacity:1;fill-rule:nonzero;stroke:none"
         d="m 7813.72,5217.85 -88.61,49.57 -22.99,86.54 -20.82,4.45 -6.51,-25.4 -39.64,66.36 -59.14,20.96 -68.45,-47.8 -25.41,-82.43 54.67,-62.93 93.75,-32.27 118.37,-73.1 64.78,96.05" /><path
         id="path44"
         style="fill:#eed5d5;fill-opacity:1;fill-rule:nonzero;stroke:none"
         d="m 7822.1,5274.19 -132.84,-157.33 491.91,-477.26 132.62,-42.78 564.91,450.49 -151.08,308.46 -421.33,-358.07 -484.19,276.49" /><path
         id="path46"
         style="fill:#353a85;fill-opacity:1;fill-rule:nonzero;stroke:none"
         d="M 9750.27,1088.55 9770,998.063 9613.68,869.199 9505.93,940.5 l 68.3,109.68 156.33,128.86 19.71,-90.49" /><path
         id="path48"
         style="fill:#353a85;fill-opacity:1;fill-rule:nonzero;stroke:none"
         d="m 9203.58,3871 174.44,-402.25 16.44,-1131.72 358.67,-1217.31 -166.77,-73.96 -731.92,1413.48 -83.29,447.69 -33.11,942.88 465.54,21.19" /><path
         id="path50"
         style="fill:#353a85;fill-opacity:1;fill-rule:nonzero;stroke:none"
         d="m 8359.03,3780.85 -13.71,-1186.05 223.5,-1529.21 h 171.85 l 108.55,1411.03 235.16,1411.03 -725.35,-106.8" /><path
         id="path52"
         style="fill:#353a85;fill-opacity:1;fill-rule:nonzero;stroke:none"
         d="m 8739.69,1086.04 v -92.919 l -185.84,-92.922 -92.93,92.922 92.93,92.919 h 185.84" /><path
         id="path54"
         style="fill:#eed5d5;fill-opacity:1;fill-rule:nonzero;stroke:none"
         d="m 8697.46,5386.85 456.5,16.9 c 0,0 273.1,-239.62 414.23,-862.28 143.72,-634.03 -26.54,-1546.77 -26.54,-1546.77 0,0 -1224.74,163.23 -1425.55,188.44 l 306.37,1251.84 274.99,951.87" /><path
         id="path56"
         style="fill:#eac1a4;fill-opacity:1;fill-rule:nonzero;stroke:none"
         d="m 8861.05,5340.21 c 53.32,5.21 106.63,10.41 159.94,15.63 0.57,42.71 -2.27,85.48 -8.5,127.73 44.45,15.56 95.82,38.92 103.62,85.37 2.46,14.62 -0.05,29.58 -2.56,44.19 -10.36,60.44 -20.72,120.88 -31.07,181.32 -3.58,20.91 -7.4,42.42 -18.74,60.34 -19.9,31.45 -58.58,45.25 -95.24,51.67 -93.55,16.36 -195.54,-3.76 -268.18,-64.96 -19.32,-16.28 -36.81,-35.86 -45.36,-59.64 -13.17,-36.68 -3.41,-77.17 6.44,-114.88 9.09,-34.8 18.17,-69.61 27.26,-104.41 10.45,-40.03 25.57,-85.54 64.1,-100.6 20.46,-8 44.63,-5.7 63.15,-17.51 32.65,-20.84 28.19,-69.43 45.14,-104.25" /><path
         id="path58"
         style="fill:#353a85;fill-opacity:1;fill-rule:nonzero;stroke:none"
         d="m 8340.23,5944.26 c -1.03,41.43 4.79,83.36 13.07,121.14 14.22,64.92 90.82,94.1 157.12,98.7 143.2,9.94 281.4,74.86 421.25,24.75 79.93,-28.64 187.29,-35.52 259.63,-75.9 30.2,-16.87 54.3,-43.18 73.06,-72.26 65.01,-100.69 65.18,-239.42 0.43,-340.29 -14.54,-22.63 -31.91,-43.3 -50.17,-63.05 -37.78,-40.87 -82.99,-91.34 -134.91,-106.43 -1.17,46.42 41.32,192.78 5.71,230.89 -56.5,60.46 -184.48,39.57 -254.71,24.79 -76.59,-16.11 -144.91,-70.25 -220.85,-81.74 -54.64,-8.26 -124.31,18.63 -170.73,46.93 -72.73,44.34 -97.02,117.6 -98.9,192.47" /><path
         id="path60"
         style="fill:#ffffff;fill-opacity:1;fill-rule:nonzero;stroke:none"
         d="m 8823.37,5330.4 -479.9,-1919.64 -39.34,-251.76 597.92,-78.67 c 0,0 -23.6,919.25 -15.74,1041.81 7.87,122.57 96.54,387.65 110.15,673.28 7.87,165.21 60.34,461.97 23.6,558.58 l -196.69,-23.6" /><path
         id="path62"
         style="fill:#d9a3a3;fill-opacity:1;fill-rule:nonzero;stroke:none"
         d="m 4896.6,3202.08 -0.05,-519.79 c 2.41,10.42 4,21.25 4,32.69 v 823.43 h -3.91 l -0.04,-336.33" /><path
         id="path64"
         style="fill:#d9a3a3;fill-opacity:1;fill-rule:nonzero;stroke:none"
         d="m 4896.84,3901.06 -0.05,509.21 c -2.49,-10.55 -4.08,-21.54 -4.08,-33.11 v -815 h 3.91 v 338.9 h 0.22" /><path
         id="path66"
         style="fill:#d9a3a3;fill-opacity:1;fill-rule:nonzero;stroke:none"
         d="m 4743.83,2059.61 c -18.82,-1.96 -37.77,-7.75 -55.87,-18.09 -55.74,-31.8 -111.13,-61.94 -167.52,-81.15 55.56,18.47 110.56,48.35 168.27,79.67 18.49,10.03 37.05,16.38 55.12,19.57" /><path
         id="path68"
         style="fill:#d9a3a3;fill-opacity:1;fill-rule:nonzero;stroke:none"
         d="m 5272.82,4419.37 c -56.38,19.2 -111.78,49.35 -167.51,81.16 -18.1,10.32 -37.04,16.12 -55.84,18.08 18.06,-3.19 36.61,-9.54 55.09,-19.57 57.71,-31.32 112.71,-61.2 168.26,-79.67" /><path
         id="path70"
         style="fill:#d9a3a3;fill-opacity:1;fill-rule:nonzero;stroke:none"
         d="M 4896.47,1951.3 4896.4,875.641 c 1.36,0.007 2.77,0.007 4.15,0.019 v 1042.49 c 0,11.58 -1.59,22.58 -4.08,33.15" /><path
         id="path72"
         style="fill:#d9a3a3;fill-opacity:1;fill-rule:nonzero;stroke:none"
         d="m 3385.77,3755.81 c 15.48,-24.85 21.99,-51.59 21.46,-77.54 3.02,29.5 -3.18,60.58 -20.98,89.11 -57.36,92.02 -94.01,194.2 -93.57,290.61 -3.63,-99.76 33.47,-206.46 93.09,-302.18" /><path
         id="path74"
         style="fill:#d9a3a3;fill-opacity:1;fill-rule:nonzero;stroke:none"
         d="m 4040.94,4032.11 c -4.56,-92.58 -51.06,-180.6 -101.79,-269.49 -13.15,-23.04 -18.94,-47.43 -18.78,-71.17 1.57,19.94 7.31,40.11 18.29,59.34 52.95,92.66 101.28,184.38 102.28,281.32" /><path
         id="path76"
         style="fill:#d9a3a3;fill-opacity:1;fill-rule:nonzero;stroke:none"
         d="m 4896.71,5141.29 -0.05,519.79 -0.04,586.9 c -1.3,-0.06 -2.61,-0.05 -3.91,-0.11 V 5173.98 c 0,-11.43 1.59,-22.26 4,-32.69" /><path
         id="path78"
         style="fill:#8cabef;fill-opacity:1;fill-rule:nonzero;stroke:none"
         d="m 4743.83,2059.61 c -18.07,-3.19 -36.63,-9.54 -55.12,-19.57 -57.71,-31.32 -112.71,-61.2 -168.27,-79.67 -83.66,-28.49 -169.52,-32.87 -261.94,17.38 -188.2,102.3 -257.87,355.51 -149.32,539.96 133.87,227.49 377.24,199.45 574.07,76.7 84.95,-52.97 192.16,-3.43 213.3,87.88 l 0.05,519.79 0.04,336.33 h -0.02 v 23.75 h -3.91 v -19.15 h -867.78 c -66.61,17.68 -109.83,81.79 -104.56,148.44 -0.16,23.74 5.63,48.13 18.78,71.17 50.73,88.89 97.23,176.91 101.79,269.49 0.49,47.85 -10.49,96.96 -38.25,148.1 -102.19,188.26 -355.37,258.07 -539.89,149.63 -116.93,-68.72 -166.29,-166.41 -170.12,-271.85 -0.44,-96.41 36.21,-198.59 93.57,-290.61 17.8,-28.53 24,-59.61 20.98,-89.11 -1.28,-62.09 -43.86,-119.58 -107.33,-135.26 h -754.59 c -2.5,-3.81 -5.1,-7.52 -7.51,-11.45 -65.12,-106.42 -51.7,-185.54 45.47,-252.53 62.27,-42.92 127.97,-79.77 182.48,-135.42 83.22,-84.97 88.61,-135.09 25.07,-240.18 -71.5,-118.29 -71.12,-123.13 38.76,-207.16 29.49,-22.56 60.71,-39.52 19.28,-82.22 -60.95,-62.8 -39.15,-124.08 13.35,-169.85 73.68,-64.23 84.75,-146.64 70.92,-238.78 -12.08,-80.39 -29.88,-159.76 -44.92,-239.63 -40.57,-215.49 15.94,-315.51 210.64,-372.13 203.21,-59.09 405.45,-7.91 608.1,11.65 135.84,13.12 269.57,60.36 408.55,25.98 90.22,-22.33 140.05,-77.5 151.63,-178.54 16.9,-147.35 60.76,-288.17 85.82,-433.15 20.44,-118.248 71.93,-155.19 178.43,-150.409 89.25,4 216.88,5.891 365.02,6.45 l 0.07,1075.659 c -16.46,69.93 -83.48,115.52 -152.64,108.31" /><path
         id="path80"
         style="fill:#474ebb;fill-opacity:1;fill-rule:nonzero;stroke:none"
         d="m 5631.28,5569.73 c 41.77,-83.91 157.56,-107.2 227.89,-35.95 162.94,165.1 393.15,248.88 576.19,58.69 148.41,-154.22 139.43,-416.68 -19.87,-559.88 -78.23,-70.33 -162.77,-86.01 -250.75,-77.73 -58.33,5.07 -118.77,21.36 -182.17,38.43 -20.3,5.46 -39.82,7.33 -58.13,6.24 -68.96,-9.04 -123.59,-68.96 -123.36,-140.83 l 118.29,-495.28 -0.22,-0.05 78.69,-329.64 h 0.03 l 2.84,-11.89 2.67,-11.21 3.8,0.91 854.39,203.96 c 83.59,-9.41 145.94,-93 120.16,-181.07 -44.79,-152.96 -80.22,-301.52 37.43,-432.55 143.11,-159.38 405.58,-168.51 559.87,-20.18 190.3,182.91 106.64,413.17 -58.36,576.22 -67.3,66.51 -50.08,173.57 22.86,220.36 l 522.34,124.69 c 27.41,192.68 24.96,382.37 -5.68,559.81 -90.35,457.24 -267.74,810.77 -548.08,1067.57 -575.13,526.81 -1238.66,670.93 -1943.27,558.95 -66.18,-10.52 -131.02,-25.07 -194.6,-43.16 l 136.3,-570.85 120.74,-505.56" /><path
         id="path82"
         style="fill:#474ebb;fill-opacity:1;fill-rule:nonzero;stroke:none"
         d="m 4896.64,3562.16 h -0.02 v -23.75 h 0.02 v 23.75" /><path
         id="path84"
         style="fill:#353a85;fill-opacity:1;fill-rule:nonzero;stroke:none"
         d="m 6506.65,868.789 c 127.16,6.902 65.46,86.262 6.83,209.501 -475.68,999.85 90.91,1805.8 183.68,1918.58 139.04,169.03 245.6,353.11 319.92,541.54 h -537.02 c -81.81,-28.58 -123.41,-128.7 -73.39,-209.04 122.63,-196.89 150.53,-440.28 -77.03,-574.02 -184.52,-108.45 -437.69,-38.62 -539.87,149.63 -84.02,154.77 -15.06,291.04 64.01,429.42 45.53,79.67 4.29,175.46 -74.83,204.01 h -878.4 v -823.43 c 0,-11.44 -1.59,-22.27 -4,-32.69 v -3.51 c -22.24,-89.98 -128.48,-138.38 -212.81,-85.85 -196.89,122.65 -440.28,150.58 -574.03,-76.97 -108.47,-184.51 -28.22,-433.41 160.02,-535.62 91,-49.41 171.41,-46.33 250.71,-19.97 56.39,19.21 111.78,49.35 167.52,81.15 18.1,10.34 37.05,16.13 55.87,18.09 72.33,12.77 136.4,-27.31 152.64,-105.87 v -2.44 c 2.49,-10.57 4.08,-21.57 4.08,-33.15 V 875.66 c 573.2,2.09 1449.85,-15.351 1606.1,-6.871" /><path
         id="path86"
         style="fill:#353a85;fill-opacity:1;fill-rule:nonzero;stroke:none"
         d="m 4896.47,1951.3 v 2.44 c -16.24,78.56 -80.31,118.64 -152.64,105.87 69.16,7.21 136.18,-38.38 152.64,-108.31" /><path
         id="path88"
         style="fill:#353a85;fill-opacity:1;fill-rule:nonzero;stroke:none"
         d="m 4683.25,2594.41 c -196.83,122.75 -440.2,150.79 -574.07,-76.7 -108.55,-184.45 -38.88,-437.66 149.32,-539.96 92.42,-50.25 178.28,-45.87 261.94,-17.38 -79.3,-26.36 -159.71,-29.44 -250.71,19.97 -188.24,102.21 -268.49,351.11 -160.02,535.62 133.75,227.55 377.14,199.62 574.03,76.97 84.33,-52.53 190.57,-4.13 212.81,85.85 v 3.51 c -21.14,-91.31 -128.35,-140.85 -213.3,-87.88" /><path
         id="path90"
         style="fill:#5d66d3;fill-opacity:1;fill-rule:nonzero;stroke:none"
         d="m 5684.09,4976.72 c -133.88,227.49 -377.24,199.44 -574.07,76.7 -84.95,-52.98 -192.17,-3.44 -213.31,87.87 -2.42,10.43 -4,21.26 -4,32.69 v 1073.89 c -293.26,-13.23 -578.57,-101.58 -852.36,-235.81 -73.63,-36.09 -146.02,-75.55 -217.75,-116.16 -503.44,-285.11 -783.52,-722.83 -759.77,-1364.2 13.33,-359.95 -146.93,-621.94 -383.68,-842.13 -42.81,-39.81 -85.35,-79.41 -120.4,-127.17 -4.62,-6.31 -9.09,-12.78 -13.44,-19.39 h 754.59 c 63.46,15.68 106.05,73.17 107.33,135.26 0.53,25.95 -5.98,52.69 -21.46,77.54 -59.62,95.72 -96.72,202.42 -93.09,302.18 3.83,105.44 53.19,203.13 170.12,271.85 184.52,108.44 437.69,38.63 539.88,-149.63 27.76,-51.14 38.75,-100.25 38.26,-148.1 -1,-96.94 -49.34,-188.66 -102.28,-281.32 -10.98,-19.23 -16.72,-39.4 -18.29,-59.34 -5.27,-66.65 37.95,-130.76 104.56,-148.44 h 867.78 v 834.15 c 0,11.57 1.59,22.56 4.07,33.11 16.46,69.95 83.5,115.56 152.69,108.34 18.8,-1.96 37.74,-7.76 55.84,-18.08 55.73,-31.81 111.13,-61.96 167.51,-81.16 83.66,-28.49 169.52,-32.87 261.96,17.39 188.18,102.29 257.86,355.5 149.31,539.96" /><path
         id="path92"
         style="fill:#eed5d5;fill-opacity:1;fill-rule:nonzero;stroke:none"
         d="m 9225.95,5038.29 -584.1,-551.54 -866.51,258.31 -62,-194.91 952.33,-435.7 h 250.62 l 529.55,450.5 -219.89,473.34" /><path
         id="path94"
         style="fill:#eac1a4;fill-opacity:1;fill-rule:nonzero;stroke:none"
         d="m 7718.93,4567.72 -150.83,-2.77 -92.09,129.98 234.11,130.16 65.22,-80.03 -56.41,-177.34" /><path
         id="path96"
         style="fill:#eac1a4;fill-opacity:1;fill-rule:nonzero;stroke:none"
         d="m 2871.71,4237.82 -2.82,-87.9 155.14,-56.48 89.43,67.75 0.06,102.34 -86.33,4.81 -2.71,22.5 -28.27,18.18 -124.5,-71.2" /><path
         id="path98"
         style="fill:#d67086;fill-opacity:1;fill-rule:nonzero;stroke:none"
         d="m 1576.8,4895.44 639.8,-544.83 679.6,-13.21 c 0,0 -27.59,-291.98 -27.31,-267.71 0.26,24.27 -752.62,-72.8 -752.62,-72.8 l -667.95,472.1 128.48,426.45" /></g></g></svg>